<?xml version="1.0" encoding="UTF-8" standalone="no"?>
<svg
   xmlns:dc="http://purl.org/dc/elements/1.1/"
   xmlns:cc="http://creativecommons.org/ns#"
   xmlns:rdf="http://www.w3.org/1999/02/22-rdf-syntax-ns#"
   xmlns:svg="http://www.w3.org/2000/svg"
   xmlns="http://www.w3.org/2000/svg"
   viewBox="0 0 384 384"
   height="384"
   width="384"
   xml:space="preserve"
   id="svg2"
   version="1.1"><metadata
     id="metadata8"><rdf:RDF><cc:Work
         rdf:about=""><dc:format>image/svg+xml</dc:format><dc:type
           rdf:resource="http://purl.org/dc/dcmitype/StillImage" /></cc:Work></rdf:RDF></metadata><defs
     id="defs6"><clipPath
       id="clipPath18"
       clipPathUnits="userSpaceOnUse"><path
         id="path16"
         d="M 0,288 H 288 V 0 H 0 Z" /></clipPath></defs><g
     transform="matrix(1.3333333,0,0,-1.3333333,0,384)"
     id="g10"><g
       id="g12"><g
         clip-path="url(#clipPath18)"
         id="g14"><g
           transform="translate(148.9403,287.6074)"
           id="g20"><path
             id="path22"
             style="fill:#e7e8e9;fill-opacity:1;fill-rule:nonzero;stroke:none"
             d="M 0,0 C -1.415,-0.636 -2.907,-0.232 -4.354,-0.242 -5.705,-0.254 -7.104,-0.607 -8.427,0 Z" /></g><g
           transform="translate(0.8754,141.7902)"
           id="g24"><path
             id="path26"
             style="fill:#e7e8e9;fill-opacity:1;fill-rule:nonzero;stroke:none"
             d="M 0,0 C 0.579,-1.002 0.169,-2.083 0.254,-3.123 0.156,-3.215 0.073,-3.209 0,-3.091 Z" /></g><g
           transform="translate(0.8754,147.4094)"
           id="g28"><path
             id="path30"
             style="fill:#e7e8e9;fill-opacity:1;fill-rule:nonzero;stroke:none"
             d="M 0,0 C 0.467,-1.03 0.445,-2.061 0,-3.091 Z" /></g><g
           transform="translate(0.8754,138.6994)"
           id="g32"><path
             id="path34"
             style="fill:#e7e8e9;fill-opacity:1;fill-rule:nonzero;stroke:none"
             d="M 0,0 C 0.086,-0.006 0.172,-0.016 0.254,-0.032 V -1.981 C 0.162,-2.092 0.076,-2.089 0,-1.965 Z" /></g><g
           transform="translate(151.4688,287.6074)"
           id="g36"><path
             id="path38"
             style="fill:#e7e8e9;fill-opacity:1;fill-rule:nonzero;stroke:none"
             d="M 0,0 C -0.655,-0.496 -1.31,-0.398 -1.965,0 Z" /></g><g
           transform="translate(139.9498,287.6074)"
           id="g40"><path
             id="path42"
             style="fill:#e7e8e9;fill-opacity:1;fill-rule:nonzero;stroke:none"
             d="M 0,0 C -0.655,-0.398 -1.31,-0.496 -1.965,0 Z" /></g><g
           transform="translate(0.8754,149.9379)"
           id="g44"><path
             id="path46"
             style="fill:#e7e8e9;fill-opacity:1;fill-rule:nonzero;stroke:none"
             d="M 0,0 C 0.483,-0.563 0.398,-1.123 0,-1.685 Z" /></g><g
           transform="translate(0.8754,136.7328)"
           id="g48"><path
             id="path50"
             style="fill:#e7e8e9;fill-opacity:1;fill-rule:nonzero;stroke:none"
             d="M 0,0 C 0.086,0 0.172,-0.003 0.254,-0.016 0.27,-0.474 0.286,-0.932 0.302,-1.39 0.2,-1.393 0.102,-1.399 0,-1.406 Z" /></g><g
           transform="translate(284.6247,176.7837)"
           id="g52"><path
             id="path54"
             style="fill:#e7e8e9;fill-opacity:1;fill-rule:nonzero;stroke:none"
             d="m 0,0 c -7.368,30.252 -22.792,55.68 -46.36,75.982 -23.488,20.235 -50.786,31.715 -81.741,34.364 -1.211,0.105 -2.499,-0.146 -3.651,0.477 h -1.405 c -0.655,-0.232 -1.31,-0.232 -1.966,0 h -0.562 c -2.808,-0.241 -5.62,-0.241 -8.428,0 h -0.563 c -0.655,-0.232 -1.31,-0.232 -1.965,0 h -1.685 c -0.239,-0.219 -0.531,-0.133 -0.802,-0.143 -3.037,-0.092 -6.067,-0.226 -9.085,-0.62 -9.264,-1.215 -18.337,-3.263 -27.193,-6.227 -8.275,-2.766 -16.197,-6.347 -23.854,-10.542 -11.658,-6.385 -22.124,-14.364 -31.649,-23.583 -3.189,-3.088 -6.147,-6.414 -9.018,-9.811 -7.623,-9.019 -14.066,-18.823 -19.288,-29.397 -5.072,-10.275 -8.882,-21.026 -11.372,-32.233 -1.24,-5.578 -2.178,-11.2 -2.738,-16.893 -0.216,-2.175 -0.079,-4.369 -0.426,-6.535 v -1.685 c 0.232,-0.563 0.232,-1.123 0,-1.686 v -0.843 c 0.232,-1.03 0.232,-2.06 0,-3.091 v -2.528 c 0.309,-1.021 0.07,-2.067 0.146,-3.097 v -1.937 c 0.067,-0.467 -0.152,-0.97 0.159,-1.412 0.512,-0.003 1.028,-0.025 1.54,-0.003 10.85,0.448 21.704,0.887 32.551,1.386 1.164,0.051 1.504,-0.264 1.555,-1.424 0.2,-4.306 0.798,-8.567 1.654,-12.791 5.797,-28.586 20.648,-51.311 44.295,-68.315 0.977,-0.702 0.983,-1.113 0.369,-2.051 -5.826,-8.929 -11.591,-17.904 -17.411,-26.84 -0.544,-0.833 -0.601,-1.211 0.328,-1.822 20.899,-13.684 43.806,-21.421 68.706,-23.24 12.53,-0.916 24.983,-0.137 37.306,2.277 19.332,3.781 37.137,11.264 53.425,22.359 0.878,0.598 0.904,0.948 0.331,1.79 -5.972,8.781 -11.878,17.606 -17.866,26.376 -0.737,1.078 -0.725,1.543 0.382,2.354 15.859,11.629 27.753,26.464 35.627,44.492 5.005,11.461 7.918,23.441 8.704,35.929 0.127,2.058 0.136,2.077 2.216,2.019 10.717,-0.295 21.434,-0.581 32.148,-0.931 1.195,-0.038 1.482,0.299 1.51,1.45 C 4.249,-25.447 3.075,-12.622 0,0 m -63.64,-149.42 c 0.505,-0.763 0.362,-1.018 -0.334,-1.466 -15.516,-10.03 -32.326,-16.791 -50.506,-20.137 -8.396,-1.545 -16.855,-2.347 -25.4,-2.312 -26.665,0.131 -51.339,7.181 -73.982,21.317 -0.792,0.493 -0.871,0.807 -0.356,1.577 5.368,7.992 10.707,16.005 16.021,24.032 0.468,0.706 0.786,0.83 1.527,0.366 8.923,-5.581 18.479,-9.731 28.643,-12.473 10.959,-2.957 22.102,-4.169 33.455,-3.6 14.415,0.722 28.112,4.211 41.134,10.406 4.22,2.01 8.297,4.283 12.196,6.866 0.76,0.505 1.142,0.601 1.717,-0.287 5.257,-8.122 10.552,-16.215 15.885,-24.289 m 20.413,109.424 c 0.003,-0.76 -0.245,-0.948 -0.961,-0.929 -1.685,0.051 -3.374,-0.009 -5.056,0.038 -0.731,0.02 -0.957,-0.238 -1.011,-0.95 -0.388,-5.187 -1.326,-10.285 -2.694,-15.297 -0.225,-0.827 -0.149,-1.253 0.744,-1.555 1.587,-0.544 3.114,-1.265 4.694,-1.832 0.757,-0.27 1.043,-0.486 0.668,-1.367 -2.153,-5.018 -4.242,-10.062 -6.325,-15.112 -0.277,-0.674 -0.541,-0.814 -1.234,-0.49 -1.517,0.713 -3.097,1.295 -4.627,1.985 -0.69,0.308 -1.024,0.168 -1.38,-0.515 -2.436,-4.65 -5.279,-9.041 -8.542,-13.156 -0.436,-0.554 -0.452,-0.878 0.089,-1.371 1.38,-1.263 2.681,-2.614 4.058,-3.883 0.534,-0.493 0.566,-0.798 0.025,-1.332 -3.908,-3.839 -7.797,-7.696 -11.652,-11.589 -0.607,-0.61 -0.906,-0.474 -1.408,0.067 -1.142,1.24 -2.37,2.398 -3.505,3.641 -0.531,0.582 -0.871,0.751 -1.574,0.156 -3.899,-3.301 -8.084,-6.204 -12.555,-8.672 -0.944,-0.518 -0.976,-0.995 -0.563,-1.857 0.77,-1.597 1.406,-3.26 2.175,-4.856 0.379,-0.786 0.207,-1.069 -0.598,-1.387 -4.986,-1.978 -9.953,-4.007 -14.911,-6.058 -0.751,-0.308 -1.119,-0.302 -1.422,0.573 -0.559,1.628 -1.291,3.199 -1.892,4.817 -0.273,0.732 -0.578,1.021 -1.418,0.757 -4.872,-1.526 -9.849,-2.569 -14.924,-3.116 -0.763,-0.083 -1.136,-0.315 -1.085,-1.212 0.105,-1.867 0.013,-3.746 0.102,-5.613 0.048,-0.951 -0.168,-1.291 -1.196,-1.269 -5.336,0.124 -10.672,0.188 -16.008,0.229 -0.792,0.007 -1.062,0.226 -1.027,1.034 0.085,1.822 0.066,3.651 0.133,5.476 0.026,0.719 -0.111,1.078 -0.957,1.154 -5.085,0.465 -10.081,1.425 -14.985,2.834 -0.868,0.251 -1.215,0.14 -1.517,-0.728 -0.645,-1.851 -1.437,-3.648 -2.121,-5.486 -0.248,-0.661 -0.426,-0.983 -1.262,-0.617 -4.999,2.198 -10.018,4.347 -15.055,6.446 -0.823,0.344 -0.76,0.684 -0.474,1.329 0.754,1.705 1.425,3.451 2.204,5.146 0.334,0.731 0.312,1.11 -0.477,1.529 -4.506,2.401 -8.767,5.184 -12.723,8.418 -0.713,0.582 -1.063,0.375 -1.581,-0.187 -1.364,-1.482 -2.798,-2.898 -4.163,-4.379 -0.509,-0.554 -0.833,-0.671 -1.424,-0.054 -3.785,3.959 -7.598,7.893 -11.433,11.801 -0.547,0.56 -0.436,0.865 0.067,1.339 1.428,1.348 2.795,2.763 4.226,4.112 0.525,0.489 0.528,0.814 0.07,1.37 -3.278,3.978 -6.188,8.218 -8.656,12.746 -0.433,0.792 -0.852,0.76 -1.552,0.433 -1.816,-0.85 -3.682,-1.597 -5.492,-2.462 -0.789,-0.375 -1.059,-0.188 -1.361,0.595 -1.959,5.047 -3.959,10.078 -5.995,15.093 -0.327,0.814 -0.159,1.125 0.627,1.415 1.752,0.639 3.46,1.405 5.209,2.048 0.76,0.28 0.986,0.601 0.731,1.418 -1.523,4.872 -2.544,9.852 -3.081,14.931 -0.08,0.753 -0.347,1.036 -1.132,1.011 -2.058,-0.064 -4.122,-0.007 -6.179,-0.08 -0.852,-0.031 -1.12,0.188 -1.097,1.078 0.063,2.713 0.022,5.429 0.022,8.145 h 0.242 c 0,2.528 0.085,5.059 -0.035,7.581 -0.067,1.361 0.429,1.619 1.647,1.542 1.771,-0.111 3.555,-0.022 5.333,-0.073 0.703,-0.022 0.935,0.188 1.011,0.919 0.5,4.745 1.32,9.439 2.602,14.037 0.194,0.697 -0.042,0.897 -0.611,1.113 -2.134,0.821 -4.245,1.695 -6.376,2.519 -0.684,0.264 -0.903,0.521 -0.557,1.316 2.188,5.003 4.322,10.027 6.424,15.065 0.337,0.804 0.693,0.798 1.371,0.486 1.866,-0.855 3.768,-1.631 5.635,-2.487 0.607,-0.28 0.935,-0.302 1.285,0.388 2.359,4.637 5.174,8.99 8.357,13.102 0.436,0.563 0.293,0.843 -0.153,1.26 -1.647,1.529 -3.24,3.113 -4.9,4.63 -0.554,0.506 -0.528,0.804 -0.013,1.32 3.848,3.832 7.68,7.68 11.48,11.559 0.62,0.636 0.973,0.589 1.549,-0.025 1.377,-1.466 2.846,-2.846 4.23,-4.309 0.496,-0.522 0.82,-0.693 1.456,-0.15 3.877,3.327 8.042,6.259 12.463,8.819 0.677,0.394 0.75,0.744 0.416,1.444 -0.922,1.936 -1.72,3.933 -2.642,5.873 -0.353,0.738 -0.344,1.11 0.496,1.453 5.009,2.048 10.004,4.131 14.991,6.237 0.709,0.299 1.024,0.232 1.313,-0.544 0.719,-1.921 1.584,-3.791 2.309,-5.708 0.264,-0.703 0.525,-0.932 1.291,-0.681 4.843,1.596 9.801,2.722 14.867,3.349 0.795,0.098 0.973,0.451 0.935,1.202 -0.105,2.153 -0.102,4.306 -0.204,6.459 -0.034,0.772 0.159,1.043 0.986,1.036 5.384,-0.035 10.768,-0.044 16.152,0.01 1.005,0.009 1.135,-0.385 1.113,-1.228 -0.057,-1.965 -0.013,-3.934 -0.051,-5.899 -0.009,-0.674 0.143,-0.998 0.913,-1.052 5.094,-0.357 10.106,-1.234 15.035,-2.554 0.843,-0.226 1.113,-0.006 1.381,0.754 0.686,1.981 1.491,3.924 2.203,5.899 0.245,0.677 0.531,0.833 1.231,0.534 5.025,-2.14 10.059,-4.255 15.106,-6.338 0.776,-0.318 0.772,-0.677 0.473,-1.345 -0.737,-1.663 -1.332,-3.393 -2.137,-5.022 -0.486,-0.985 -0.181,-1.338 0.681,-1.78 4.462,-2.28 8.675,-4.971 12.638,-8.04 0.636,-0.493 0.979,-0.572 1.555,0.093 1.319,1.516 2.773,2.919 4.108,4.42 0.547,0.614 0.853,0.579 1.409,0.006 3.823,-3.924 7.667,-7.823 11.534,-11.699 0.532,-0.531 0.477,-0.818 -0.028,-1.298 -1.323,-1.259 -2.57,-2.595 -3.896,-3.851 -0.531,-0.509 -0.658,-0.852 -0.121,-1.479 3.428,-3.978 6.431,-8.265 9.057,-12.809 0.372,-0.642 0.678,-0.687 1.298,-0.391 1.685,0.804 3.412,1.517 5.094,2.328 0.719,0.346 1.072,0.359 1.415,-0.506 1.988,-5.034 4.026,-10.049 6.093,-15.048 0.322,-0.776 0.258,-1.139 -0.569,-1.444 -1.574,-0.579 -3.097,-1.294 -4.668,-1.886 -0.671,-0.251 -0.833,-0.521 -0.601,-1.237 1.625,-4.986 2.725,-10.097 3.422,-15.287 0.114,-0.849 0.384,-1.078 1.211,-1.036 1.73,0.092 3.467,0.038 5.196,0.105 0.751,0.031 1.072,-0.115 1.063,-0.97 -0.061,-5.48 -0.077,-10.956 -0.067,-16.435 m 41.933,4.509 c -9.591,0.312 -19.186,0.585 -28.78,0.779 -1.374,0.029 -1.638,0.426 -1.66,1.734 -0.633,34.049 -14.104,62.011 -40.229,83.76 -14.367,11.961 -30.951,19.542 -49.396,22.55 -31.066,5.069 -59.427,-1.717 -84.425,-20.95 -21.565,-16.594 -34.927,-38.492 -40.334,-65.199 -1.453,-7.18 -2.098,-14.437 -1.965,-21.758 0.019,-0.922 -0.235,-1.192 -1.151,-1.224 -4.958,-0.172 -9.916,-0.407 -14.87,-0.624 0,0.01 -0.003,0.02 -0.003,0.026 -4.771,-0.197 -9.544,-0.366 -14.311,-0.62 -1.116,-0.061 -1.51,0.149 -1.523,1.38 -0.34,35.118 10.682,66.219 33.191,93.148 15.553,18.604 34.806,32.148 57.47,40.801 10.787,4.118 21.924,6.767 33.401,8.077 10.087,1.149 20.19,1.292 30.265,0.172 34.86,-3.88 64.314,-18.692 88.2,-44.356 17.799,-19.128 29.206,-41.64 34.539,-67.208 2.004,-9.601 2.862,-19.329 2.872,-29.136 0.003,-0.977 -0.15,-1.39 -1.291,-1.352" /></g><g
           transform="translate(237.599,222.1952)"
           id="g56"><path
             id="path58"
             style="fill:#e7e8e9;fill-opacity:1;fill-rule:nonzero;stroke:none"
             d="M 0,0 C 2.388,2.102 4.789,4.191 7.155,6.322 7.658,6.774 8.03,6.968 8.434,6.284 8.717,5.804 9.62,5.505 8.726,4.729 4.777,1.301 0.859,-2.169 -3.066,-5.622 c -1.672,1.755 -1.669,1.755 -0.413,3.685 1.587,2.443 3.174,4.888 4.567,7.486 -2.611,-2.308 -5.219,-4.617 -7.846,-6.942 -0.264,0.283 -0.47,0.538 -0.709,0.76 -0.62,0.582 -0.69,1.011 0.061,1.657 3.618,3.107 7.174,6.293 10.777,9.426 0.296,0.254 0.661,1.068 1.173,0.302 C 4.961,10.125 6.138,9.788 5.33,8.596 3.447,5.823 1.66,2.986 -0.165,0.175 -0.111,0.114 -0.054,0.057 0,0" /></g><g
           transform="translate(268.3248,165.1381)"
           id="g60"><path
             id="path62"
             style="fill:#e7e8e9;fill-opacity:1;fill-rule:nonzero;stroke:none"
             d="m 0,0 c -2.897,-0.48 -5.816,-0.871 -8.688,-1.476 -1.278,-0.27 -1.059,0.535 -1.272,1.187 -0.309,0.954 0.318,0.976 0.944,1.078 4.465,0.731 8.93,1.469 13.395,2.207 C 6.122,3.285 6.255,3.167 6.468,1.685 6.583,0.906 6.217,0.63 5.603,0.347 2.894,-0.894 0.204,-2.175 -2.493,-3.444 c -0.146,-0.248 -0.395,-0.344 -0.636,-0.417 0.082,-0.035 0.127,0.042 0.197,0.039 0.34,0.117 0.715,-0.115 1.033,0.117 2.672,0.407 5.353,0.748 8.005,1.256 0.893,0.169 1.059,-0.159 1.154,-0.842 0.089,-0.646 0.29,-1.26 -0.728,-1.416 -4.837,-0.744 -9.664,-1.545 -14.498,-2.311 -0.366,-0.058 -1.005,-0.271 -0.945,0.397 0.064,0.712 -0.935,1.577 0.36,2.163 2.967,1.345 5.892,2.779 8.834,4.175 0.057,0.095 0.191,0.191 0.06,0.302 C 0.242,0.108 0.111,0.067 0,0" /></g><g
           transform="translate(36.2355,200.9954)"
           id="g64"><path
             id="path66"
             style="fill:#e7e8e9;fill-opacity:1;fill-rule:nonzero;stroke:none"
             d="M 0,0 C -2.614,1.348 -5.199,2.754 -7.852,4.016 -8.796,4.468 -8.663,4.862 -8.3,5.607 -7.928,6.367 -7.6,6.446 -6.853,6.049 -2.611,3.791 1.663,1.596 5.915,-0.639 6.297,-0.84 7.104,-0.932 6.522,-1.666 6.084,-2.22 6.332,-3.431 4.92,-3.107 c -2.999,0.687 -6.039,1.215 -9.06,1.806 -0.385,0.124 -0.789,0.08 -1.104,0.118 0.273,0.006 0.604,-0.045 0.805,-0.388 2.604,-1.348 5.186,-2.741 7.823,-4.016 0.96,-0.462 0.687,-0.881 0.365,-1.587 -0.359,-0.779 -0.636,-0.875 -1.418,-0.455 -4.191,2.239 -8.424,4.395 -12.628,6.605 -0.414,0.216 -1.304,0.289 -0.776,1.113 0.407,0.633 0.321,1.778 1.749,1.437 C -6.43,0.833 -3.489,0.337 -0.566,-0.239 -0.308,-0.318 0.006,-0.537 0,0" /></g><g
           transform="translate(141.9288,265.6917)"
           id="g68"><path
             id="path70"
             style="fill:#e7e8e9;fill-opacity:1;fill-rule:nonzero;stroke:none"
             d="m 0,0 c -0.105,3.126 -0.172,6.252 -0.334,9.375 -0.048,0.919 0.219,1.18 1.123,1.256 C 1.835,10.717 1.905,10.224 1.927,9.41 2.051,4.652 2.217,-0.105 2.36,-4.862 2.376,-5.33 2.652,-6.007 1.787,-5.972 1.056,-5.94 0.118,-6.599 -0.277,-5.285 c -0.916,3.068 -1.911,6.118 -2.874,9.177 -0.14,-0.038 -0.255,0.43 -0.306,0.115 -0.124,-0.776 -0.165,-1.574 0.026,-2.36 0.086,-2.286 0.13,-4.576 0.276,-6.859 0.054,-0.862 -0.283,-1.027 -1.024,-0.996 -0.645,0.032 -1.234,-0.174 -1.256,0.907 -0.105,4.856 -0.315,9.709 -0.461,14.565 -0.016,0.429 -0.302,1.186 0.588,1.087 0.713,-0.079 1.654,0.589 2.042,-0.744 C -2.337,6.392 -1.285,3.212 -0.283,0.016 -0.194,-0.086 -0.108,-0.226 0,0" /></g><g
           transform="translate(178.7534,256.0347)"
           id="g72"><path
             id="path74"
             style="fill:#e7e8e9;fill-opacity:1;fill-rule:nonzero;stroke:none"
             d="m 0,0 c -1.097,-1.221 -2.121,-1.526 -3.374,-1.011 -1.247,0.509 -1.752,1.498 -1.857,2.731 -0.115,1.317 0.159,2.608 0.435,3.883 0.566,2.602 1.199,5.187 2.392,7.585 1.218,2.449 3.145,3.1 5.444,1.924 C 4.827,14.193 5.524,11.417 4.525,9.429 4.172,8.726 3.714,9.117 3.365,9.251 2.986,9.394 2.188,9.187 2.42,10.1 c 0.115,0.448 0.124,0.929 0.127,1.393 0.01,0.763 -0.216,1.399 -1.078,1.568 -0.808,0.155 -1.374,-0.204 -1.704,-0.913 -0.296,-0.63 -0.557,-1.282 -0.779,-1.943 -0.7,-2.08 -1.32,-4.182 -1.702,-6.344 -0.089,-0.5 -0.133,-1.031 -0.076,-1.53 0.063,-0.525 0.343,-0.979 0.935,-1.097 0.54,-0.111 1.024,0.009 1.39,0.448 C 0.178,2.458 0.385,3.431 0.728,4.347 0.913,4.834 0.576,4.904 0.251,4.974 -1.38,5.323 -0.261,6.332 -0.197,7.025 -0.115,7.957 0.537,7.712 1.154,7.53 3.784,6.761 3.791,6.77 3.031,4.093 2.585,2.522 2.15,0.948 1.65,-0.604 1.498,-1.075 1.771,-1.911 0.722,-1.8 -0.366,-1.682 -0.092,-0.938 0,0" /></g><g
           transform="translate(134.701,259.7821)"
           id="g76"><path
             id="path78"
             style="fill:#e7e8e9;fill-opacity:1;fill-rule:nonzero;stroke:none"
             d="M 0,0 C 0.207,-0.97 -0.881,-0.42 -1.409,-0.623 -2.213,-0.929 -2.315,-0.467 -2.376,0.204 -2.538,1.972 -2.798,3.73 -2.977,5.498 -3.062,6.367 -3.276,6.936 -4.322,6.548 -4.576,6.456 -4.881,6.465 -5.158,6.481 -6.109,6.535 -6.325,6.16 -6.16,5.215 c 0.309,-1.746 0.379,-3.536 0.697,-5.279 0.225,-1.233 -0.621,-1.055 -1.282,-1.24 -0.814,-0.222 -1.065,0.156 -1.145,0.9 -0.474,4.322 -0.97,8.64 -1.46,12.962 -0.041,0.372 -0.079,0.741 -0.111,1.116 -0.057,0.662 -0.601,1.425 0.77,1.562 1.196,0.118 1.539,-0.197 1.58,-1.342 0.051,-1.348 0.331,-2.691 0.436,-4.039 0.057,-0.725 0.331,-0.992 1.04,-0.852 0.458,0.092 0.922,0.207 1.386,0.207 0.716,0 0.83,0.308 0.738,0.957 -0.232,1.618 -0.372,3.25 -0.585,4.872 -0.165,1.253 0.881,0.623 1.342,0.858 0.378,0.194 0.894,0.271 0.979,-0.502 C -1.215,10.377 -0.623,5.365 0,0" /></g><g
           transform="translate(65.6261,229.4376)"
           id="g80"><path
             id="path82"
             style="fill:#e7e8e9;fill-opacity:1;fill-rule:nonzero;stroke:none"
             d="m 0,0 c -0.086,-1.65 -1.11,-2.744 -2.512,-3.549 -1.218,-0.706 -2.325,-0.312 -3.387,0.436 -1.778,1.253 -3.129,2.941 -4.627,4.477 -1.504,1.539 -2.919,3.161 -4.459,4.662 -0.722,0.706 -0.626,1.069 0.039,1.756 0.763,0.792 1.128,0.508 1.729,-0.137 2.36,-2.531 4.755,-5.031 7.162,-7.515 1.425,-1.466 2.331,-1.723 3.056,-0.877 1.11,1.294 -0.009,2.188 -0.754,2.998 -2.401,2.618 -4.836,5.206 -7.349,7.722 -0.782,0.785 -0.334,1.097 0.182,1.634 0.531,0.554 0.858,0.76 1.507,0.054 C -6.793,8.799 -4.096,6.007 -1.434,3.18 -0.617,2.312 -0.032,1.317 0,0" /></g><g
           transform="translate(19.8866,186.8449)"
           id="g84"><path
             id="path86"
             style="fill:#e7e8e9;fill-opacity:1;fill-rule:nonzero;stroke:none"
             d="m 0,0 c 4.21,-0.655 8.271,-1.282 12.336,-1.918 0.737,-0.114 1.488,-0.194 2.2,-0.397 0.487,-0.14 1.6,0.318 1.193,-0.913 -0.271,-0.82 -0.251,-2.15 -1.822,-1.466 -0.376,0.166 -0.84,0.108 -1.234,0.245 -1.221,0.426 -1.883,0.07 -2.185,-1.24 -0.169,-0.744 -0.232,-1.174 0.614,-1.473 0.738,-0.26 1.402,-0.728 2.121,-1.068 0.486,-0.232 0.677,-0.445 0.486,-1.065 -0.508,-1.635 -0.461,-1.651 -1.946,-0.843 -4.182,2.277 -8.351,4.576 -12.558,6.808 -0.763,0.404 -0.76,0.894 -0.423,1.425 0.404,0.642 0,1.915 1.218,1.905" /></g><g
           transform="translate(211.2687,238.6809)"
           id="g88"><path
             id="path90"
             style="fill:#e7e8e9;fill-opacity:1;fill-rule:nonzero;stroke:none"
             d="m 0,0 c -2.643,-0.025 -4.369,2.255 -3.6,4.662 0.226,0.703 0.63,1.348 0.926,2.032 0.483,1.116 1.046,1.228 2.054,0.452 C 0.076,6.611 0.013,6.3 -0.42,5.724 -0.725,5.317 -0.951,4.85 -1.186,4.395 -1.504,3.778 -1.469,3.225 -0.84,2.808 -0.251,2.42 0.328,2.455 0.833,2.923 1.625,3.66 2.083,4.541 1.857,5.673 1.581,7.047 1.291,8.418 1.065,9.798 0.712,11.938 2.309,14.67 4.338,15.471 6.631,16.381 9.143,14.431 8.86,11.97 8.764,11.165 8.535,10.393 8.071,9.75 7.779,9.343 7.81,8.252 6.79,8.872 6.039,9.324 5.142,9.69 6.071,10.838 6.494,11.362 6.805,12.091 6.211,12.762 5.886,13.127 5.476,13.395 4.97,13.15 4.249,12.803 3.794,12.205 3.737,11.401 3.644,10.116 4.096,8.914 4.42,7.702 5.145,4.993 4.22,2.837 2.28,1.008 1.622,0.388 0.843,-0.045 0,0" /></g><g
           transform="translate(41.0028,208.1102)"
           id="g92"><path
             id="path94"
             style="fill:#e7e8e9;fill-opacity:1;fill-rule:nonzero;stroke:none"
             d="m 0,0 c -1.107,-0.261 -2.55,-0.642 -4.01,-0.938 -2.159,-0.436 -4.869,1.017 -5.775,3.04 -0.961,2.147 0.639,4.681 2.983,4.713 0.96,0.016 1.857,-0.261 2.655,-0.766 C -3.705,5.766 -2.713,5.724 -3.39,4.722 -3.861,4.029 -4.134,3.164 -5.238,4.048 -5.762,4.465 -6.506,4.697 -7.171,4.115 -7.572,3.765 -7.689,3.307 -7.492,2.843 -7.171,2.089 -6.529,1.711 -5.724,1.682 -4.436,1.635 -3.253,2.137 -2.061,2.509 0.63,3.352 2.805,2.461 4.668,0.563 5.972,-0.77 6.077,-2.487 5.053,-4.042 4.071,-5.537 2.735,-5.979 0.906,-5.365 c -0.569,0.188 -1.09,0.522 -1.653,0.735 -1.26,0.477 -1.285,1.157 -0.528,2.169 0.42,0.562 0.703,0.585 1.23,0.213 C 0.407,-2.573 0.913,-2.846 1.434,-3.04 1.975,-3.241 2.55,-3.263 2.926,-2.668 3.295,-2.089 3.285,-1.511 2.84,-0.986 2.191,-0.229 1.358,0.124 0,0" /></g><g
           transform="translate(70.3965,245.4739)"
           id="g96"><path
             id="path98"
             style="fill:#e7e8e9;fill-opacity:1;fill-rule:nonzero;stroke:none"
             d="M 0,0 C 0.592,0.426 1.154,0.833 1.717,1.24 3.062,2.207 3.762,1.959 4.401,0.385 4.598,-0.102 4.271,-0.159 4.045,-0.347 3.266,-0.995 1.768,-1.45 1.797,-2.223 1.832,-3.167 2.977,-4.036 3.514,-5.009 4.007,-5.905 4.449,-5.781 5.075,-5.196 5.448,-4.85 5.96,-4.646 6.309,-4.284 7.267,-3.288 7.817,-3.66 8.507,-4.656 9.089,-5.502 9.082,-5.909 8.189,-6.462 6.92,-7.247 5.74,-8.173 4.544,-9.07 4.125,-9.381 3.87,-9.572 3.466,-8.993 0.563,-4.872 -2.363,-0.763 -5.32,3.32 c -0.404,0.56 -0.223,0.773 0.216,1.081 1.332,0.945 2.674,1.883 3.969,2.878 0.524,0.401 0.75,0.236 1.106,-0.21 C 1.215,5.517 1.234,5.533 -0.343,4.395 -2.22,3.04 -2.223,3.04 -0.859,1.151 -0.585,0.773 -0.302,0.404 0,0" /></g><g
           transform="translate(116.8667,256.8125)"
           id="g100"><path
             id="path102"
             style="fill:#e7e8e9;fill-opacity:1;fill-rule:nonzero;stroke:none"
             d="m 0,0 c 0.064,-0.487 -0.312,-0.537 -0.614,-0.62 -1.615,-0.449 -3.243,-0.859 -4.853,-1.333 -0.591,-0.175 -0.801,-0.05 -0.966,0.563 -1.285,4.821 -2.595,9.636 -3.95,14.438 -0.194,0.69 0.013,0.906 0.611,1.062 1.532,0.394 3.072,0.782 4.588,1.24 1.349,0.407 0.977,-0.785 1.215,-1.313 0.226,-0.506 0.573,-1.275 -0.518,-1.406 -0.277,-0.031 -0.547,-0.127 -0.817,-0.203 -2.3,-0.655 -2.271,-0.649 -1.676,-2.97 0.241,-0.958 0.559,-1.546 1.653,-0.954 0.239,0.127 0.541,0.127 0.814,0.2 1.476,0.401 2.277,-0.239 2.217,-1.743 C -2.318,6.414 -2.738,6.462 -3.072,6.36 -5.87,5.521 -5.778,5.54 -5.142,2.706 -4.85,1.415 -4.392,1.062 -3.215,1.593 -2.964,1.708 -2.687,1.768 -2.417,1.844 -0.785,2.299 0.064,1.644 0,0" /></g><g
           transform="translate(254.6704,216.7665)"
           id="g104"><path
             id="path106"
             style="fill:#e7e8e9;fill-opacity:1;fill-rule:nonzero;stroke:none"
             d="m 0,0 c 0.149,-0.191 0.296,-0.353 0.41,-0.537 0.875,-1.377 1.727,-2.77 2.621,-4.135 0.817,-1.246 -0.566,-1.176 -0.993,-1.634 -0.41,-0.442 -0.989,-0.789 -1.361,0.137 -0.082,0.213 -0.248,0.391 -0.372,0.588 -1.383,2.194 -2.169,2.264 -4.083,0.42 -0.312,-0.302 -0.312,-0.503 -0.102,-0.824 0.36,-0.544 0.639,-1.151 1.047,-1.654 0.594,-0.734 0.55,-1.141 -0.296,-1.717 -0.996,-0.677 -1.457,-0.617 -2.067,0.464 -1.174,2.083 -1.244,2.042 -3.247,0.76 -1.806,-1.154 -1.806,-1.154 -0.649,-2.982 0.102,-0.159 0.216,-0.312 0.286,-0.481 0.191,-0.448 0.903,-0.893 0.579,-1.275 -0.487,-0.582 -1.237,-0.97 -1.93,-1.332 -0.391,-0.204 -0.5,0.299 -0.659,0.547 -0.884,1.37 -1.72,2.773 -2.636,4.124 -0.391,0.579 -0.267,0.817 0.29,1.167 4.14,2.611 8.252,5.263 12.377,7.897 C -0.553,-0.318 -0.308,-0.181 0,0" /></g><g
           transform="translate(240.005,210.5961)"
           id="g108"><path
             id="path110"
             style="fill:#e7e8e9;fill-opacity:1;fill-rule:nonzero;stroke:none"
             d="m 0,0 c -2.153,0.025 -3.765,2.239 -3.151,4.299 0.178,0.598 0.451,1.149 0.874,1.578 2.735,2.782 5.762,5.202 9.283,6.904 1.943,0.938 3.647,0.238 4.608,-1.597 C 12.507,9.474 11.105,6.201 9.235,5.734 8.5,5.549 8.485,6.414 8.087,6.742 7.779,6.999 7.639,7.33 8.068,7.674 8.427,7.966 8.771,8.291 9.07,8.647 9.445,9.092 9.722,9.588 9.289,10.164 8.85,10.742 8.313,10.838 7.689,10.475 7.047,10.097 6.382,9.75 5.772,9.327 3.813,7.966 1.892,6.554 0.105,4.97 -0.499,4.433 -1.135,3.772 -0.531,2.929 0.073,2.08 0.878,2.493 1.6,2.881 1.844,3.012 2.115,3.139 2.299,3.339 3.129,4.226 3.533,3.644 4.093,2.964 4.827,2.07 4.166,1.787 3.587,1.396 2.496,0.658 1.377,0 0,0" /></g><g
           transform="translate(115.7829,269.7368)"
           id="g112"><path
             id="path114"
             style="fill:#e7e8e9;fill-opacity:1;fill-rule:nonzero;stroke:none"
             d="M 0,0 C -0.025,3.097 1.342,4.592 3.918,4.379 5.944,4.214 6.497,2.617 7.022,1.046 7.505,-0.413 7.333,-0.604 5.81,-0.728 5.355,-0.766 5.11,-0.741 5.034,-0.235 4.977,0.127 4.853,0.493 4.7,0.83 4.424,1.453 4.055,2.026 3.237,1.841 2.43,1.657 2.264,0.97 2.337,0.305 2.684,-2.9 3.275,-6.061 4.233,-9.143 c 0.203,-0.652 0.601,-1.224 1.421,-1.052 0.805,0.168 0.922,0.836 0.91,1.526 -0.007,0.42 0.003,0.852 -0.099,1.256 -0.229,0.926 0.035,1.326 1.04,1.438 0.795,0.089 1.199,0.095 1.243,-0.869 0.045,-0.928 0.293,-1.844 0.144,-2.785 -0.277,-1.734 -1.263,-2.834 -2.78,-3.095 -1.673,-0.289 -2.967,0.328 -3.771,1.988 C 1.129,-8.227 0.827,-5.463 0.312,-2.767 0.127,-1.809 -0.102,-0.843 0,0" /></g><g
           transform="translate(214.9417,236.768)"
           id="g116"><path
             id="path118"
             style="fill:#e7e8e9;fill-opacity:1;fill-rule:nonzero;stroke:none"
             d="m 0,0 c 0.025,1.119 0.502,2.077 1.094,2.983 1.561,2.398 3.364,4.611 5.273,6.732 0.658,0.732 1.421,1.361 2.346,1.749 1.333,0.557 2.459,0.159 3.483,-0.741 C 13.216,9.83 13.56,8.713 13.178,7.435 12.981,6.774 12.609,6.163 12.301,5.537 11.792,4.513 11.203,4.172 10.249,5.158 9.823,5.6 9.591,5.867 10.097,6.357 10.259,6.516 10.37,6.735 10.475,6.945 10.822,7.632 11.172,8.364 10.361,8.946 9.61,9.483 9.022,8.968 8.529,8.456 6.414,6.262 4.57,3.845 2.891,1.304 2.474,0.677 2.124,-0.124 2.888,-0.716 3.628,-1.288 4.293,-0.805 4.862,-0.258 5.063,-0.064 5.254,0.146 5.441,0.353 6.243,1.234 7.13,1.154 7.782,0.169 7.985,-0.14 7.874,-0.343 7.686,-0.572 6.882,-1.552 6.052,-2.509 4.901,-3.097 2.595,-4.277 -0.06,-2.592 0,0" /></g><g
           transform="translate(230.7827,225.5935)"
           id="g120"><path
             id="path122"
             style="fill:#e7e8e9;fill-opacity:1;fill-rule:nonzero;stroke:none"
             d="m 0,0 c -0.995,-0.846 -1.552,-1.428 -2.21,-1.848 -0.576,-0.365 -0.751,0.363 -1.043,0.633 -1.059,0.986 -2.048,2.051 -3.101,3.044 -0.486,0.457 -0.652,0.772 -0.086,1.338 3.492,3.514 6.958,7.057 10.415,10.609 0.407,0.42 0.658,0.49 1.097,0.029 1.129,-1.183 2.322,-2.309 3.47,-3.473 C 9.594,9.267 8.147,9.086 7.839,8.532 7.594,8.087 7.162,7.521 6.599,8.338 6.414,8.602 6.141,8.803 5.905,9.035 4.242,10.679 4.299,10.618 2.541,8.981 1.644,8.144 1.708,7.626 2.63,6.98 2.894,6.799 3.129,6.548 3.314,6.284 3.587,5.896 4.392,5.702 4.061,5.117 3.73,4.528 3.167,4.023 2.601,3.632 2.22,3.365 1.991,3.921 1.743,4.156 -0.28,6.071 -0.21,6.004 -2.217,4.144 -3.307,3.136 -3.307,2.445 -2.153,1.622 -1.511,1.164 -0.89,0.674 0,0" /></g><g
           transform="translate(91.1973,265.0891)"
           id="g124"><path
             id="path126"
             style="fill:#e7e8e9;fill-opacity:1;fill-rule:nonzero;stroke:none"
             d="M 0,0 C 0.674,-0.474 0.741,-1.313 1.123,-1.949 1.45,-2.487 0.964,-2.563 0.665,-2.729 0.461,-2.843 0.239,-2.923 0.029,-3.021 c -2.71,-1.285 -2.783,-1.593 -1.145,-4.141 0.267,-0.416 0.464,-0.48 0.874,-0.254 0.49,0.267 1.056,0.413 1.511,0.725 1.119,0.77 1.698,0.499 2.226,-0.75 0.401,-0.945 0.064,-1.161 -0.671,-1.505 -2.535,-1.179 -2.522,-1.202 -1.345,-3.733 0.435,-0.929 0.858,-1.86 1.291,-2.789 0.56,-1.202 0.137,-1.943 -1.174,-2.137 -0.483,-0.073 -0.527,0.251 -0.661,0.537 -2.131,4.554 -4.261,9.111 -6.379,13.672 -0.099,0.21 -0.426,0.534 -0.051,0.722 C -3.708,-1.778 -1.902,-0.919 0,0" /></g><g
           transform="translate(189.0862,262.6362)"
           id="g128"><path
             id="path130"
             style="fill:#e7e8e9;fill-opacity:1;fill-rule:nonzero;stroke:none"
             d="M 0,0 C 0.96,1.266 1.914,2.538 2.888,3.794 3.342,4.385 5.161,4.328 5.527,3.705 5.794,3.25 5.32,3.037 5.117,2.783 3.539,0.808 1.962,-1.17 0.337,-3.104 c -1.558,-1.851 -1.886,-4.233 -2.821,-6.35 -0.518,-1.171 -1.364,-1.451 -2.334,-0.627 -0.121,0.102 -0.194,0.299 -0.222,0.461 -0.023,0.127 0.035,0.283 0.098,0.404 2.621,4.869 2.299,10.199 2.442,15.455 0.004,0.131 0.054,0.258 0.099,0.465 0.417,-0.14 0.798,-0.302 1.196,-0.395 C -0.277,6.093 0.086,5.638 -0.118,4.614 -0.305,3.66 -0.245,2.659 -0.293,1.676 -0.286,1.1 -0.773,0.442 0,0" /></g><g
           transform="translate(38.6744,218.5079)"
           id="g132"><path
             id="path134"
             style="fill:#e7e8e9;fill-opacity:1;fill-rule:nonzero;stroke:none"
             d="M 0,0 C -0.353,-0.471 -0.757,-0.875 -1.005,-1.361 -1.552,-2.433 -2.08,-1.835 -2.611,-1.393 -3.139,-0.951 -4.144,-0.773 -3.25,0.321 -2.042,1.8 -0.91,3.355 0.105,4.97 0.878,6.201 1.383,5.254 1.959,4.897 2.525,4.548 3.298,4.198 2.401,3.374 1.275,2.341 1.654,1.682 2.818,0.884 c 2.995,-2.061 5.857,-4.315 8.843,-6.392 1.015,-0.706 0.423,-1.11 0.051,-1.752 -0.47,-0.805 -0.849,-0.697 -1.513,-0.201 C 7.101,-5.139 3.966,-2.868 0.84,-0.582 0.579,-0.391 0.308,-0.213 0,0" /></g><g
           transform="translate(107.1346,253.8919)"
           id="g136"><path
             id="path138"
             style="fill:#e7e8e9;fill-opacity:1;fill-rule:nonzero;stroke:none"
             d="m 0,0 c -0.162,-0.875 -1.056,-0.655 -1.596,-0.96 -0.643,-0.363 -0.659,0.222 -0.786,0.588 -1.278,3.644 -2.611,7.27 -3.784,10.946 -0.366,1.141 -0.798,1.425 -1.807,0.871 -0.839,-0.461 -1.38,-0.448 -1.65,0.681 -0.21,0.887 -0.646,1.583 0.719,1.949 1.746,0.468 3.456,1.104 5.132,1.794 1.024,0.426 1.218,-0.162 1.412,-0.868 0.185,-0.681 0.869,-1.54 -0.512,-1.769 C -4.21,13.01 -4.398,12.386 -3.921,11.124 -2.636,7.734 -1.507,4.284 -0.315,0.859 -0.223,0.595 -0.124,0.334 0,0" /></g><g
           transform="translate(60.8629,242.7822)"
           id="g140"><path
             id="path142"
             style="fill:#e7e8e9;fill-opacity:1;fill-rule:nonzero;stroke:none"
             d="m 0,0 c -0.464,-0.382 -0.938,-0.687 -1.301,-1.091 -0.846,-0.941 -1.164,-0.063 -1.555,0.43 -0.397,0.508 -1.291,0.912 -0.203,1.723 1.568,1.17 3.065,2.446 4.525,3.749 C 2.579,5.807 2.735,4.544 3.228,4.144 3.819,3.66 4.036,3.113 3.171,2.643 1.905,1.949 2.01,1.266 2.929,0.213 5.323,-2.528 7.524,-5.438 9.919,-8.176 10.761,-9.14 10.135,-9.4 9.578,-9.992 8.768,-10.851 8.456,-10.221 8.001,-9.664 5.613,-6.732 3.209,-3.816 0.805,-0.897 0.572,-0.614 0.315,-0.35 0,0" /></g><g
           transform="translate(50.3997,232.9827)"
           id="g144"><path
             id="path146"
             style="fill:#e7e8e9;fill-opacity:1;fill-rule:nonzero;stroke:none"
             d="m 0,0 c -0.318,-0.378 -0.544,-0.754 -0.865,-1.005 -0.973,-0.75 -0.728,-1.262 0.114,-1.994 2.828,-2.458 5.521,-5.066 8.38,-7.479 1.03,-0.869 0.347,-1.215 -0.102,-1.848 -0.569,-0.805 -0.938,-0.487 -1.494,0.025 -2.789,2.567 -5.658,5.05 -8.405,7.661 -0.853,0.808 -1.288,0.658 -1.902,-0.149 -0.261,-0.347 -0.595,-1.05 -0.98,-0.843 -0.677,0.363 -1.211,1.011 -1.752,1.587 -0.2,0.213 0.118,0.416 0.255,0.569 1.424,1.616 2.878,3.206 4.286,4.834 0.388,0.448 0.64,0.375 0.999,0.003 C -1.011,0.894 -0.515,0.474 0,0" /></g><g
           transform="translate(256.387,175.7069)"
           id="g148"><path
             id="path150"
             style="fill:#e7e8e9;fill-opacity:1;fill-rule:nonzero;stroke:none"
             d="M 0,0 C -0.595,-0.111 -0.626,0.188 -0.712,0.461 -1.24,2.099 -1.775,3.74 -2.321,5.374 -2.503,5.921 -2.366,6.217 -1.787,6.405 2.91,7.922 7.607,9.442 12.288,11.01 13.477,11.407 13.315,10.428 13.569,9.893 13.856,9.289 13.741,8.968 12.962,8.729 9.27,7.588 5.613,6.319 1.927,5.149 1.075,4.875 0.779,4.532 1.218,3.679 1.428,3.272 1.495,2.792 1.631,2.347 1.79,1.825 2.302,1.084 1.984,0.82 1.412,0.343 0.556,0.21 0,0" /></g><g
           transform="translate(155.67,259.9227)"
           id="g152"><path
             id="path154"
             style="fill:#e7e8e9;fill-opacity:1;fill-rule:nonzero;stroke:none"
             d="m 0,0 c 0.528,4.398 1.037,8.663 1.549,12.93 0.057,0.465 0.175,0.929 0.156,1.39 -0.051,1.151 0.486,1.415 1.536,1.253 0.75,-0.118 1.017,-0.334 0.906,-1.158 C 3.616,10.482 3.174,6.538 2.649,2.604 2.57,1.994 2.69,1.727 3.291,1.679 3.756,1.641 4.217,1.577 4.684,1.539 6.847,1.374 6.786,1.383 6.529,-0.703 6.427,-1.523 6.09,-1.571 5.451,-1.485 3.924,-1.285 2.395,-1.081 0.862,-0.948 0.121,-0.881 -0.149,-0.579 0,0" /></g><g
           transform="translate(32.8681,175.186)"
           id="g156"><path
             id="path158"
             style="fill:#e7e8e9;fill-opacity:1;fill-rule:nonzero;stroke:none"
             d="m 0,0 c -0.48,-1.892 -0.922,-3.705 -1.409,-5.505 -0.175,-0.652 -0.671,-0.311 -1.037,-0.216 -4.652,1.196 -9.295,2.423 -13.954,3.593 -0.862,0.217 -1.116,0.487 -0.83,1.416 0.255,0.823 0.449,1.183 1.399,0.925 3.6,-0.986 7.232,-1.838 10.819,-2.865 1.056,-0.306 1.53,-0.172 1.67,0.922 0.047,0.366 0.178,0.722 0.27,1.084 0.471,1.874 0.786,2.023 2.592,1.237 C 0.019,0.375 0.019,0.375 0,0" /></g><g
           transform="translate(268.3788,189.9668)"
           id="g160"><path
             id="path162"
             style="fill:#e7e8e9;fill-opacity:1;fill-rule:nonzero;stroke:none"
             d="m 0,0 c 0.121,-0.512 -0.286,-0.553 -0.557,-0.658 -4.687,-1.819 -9.381,-3.613 -14.062,-5.445 -1.119,-0.435 -0.801,0.614 -1.056,0.989 -0.321,0.484 -0.521,1.012 0.401,1.346 3.45,1.256 6.869,2.61 10.3,3.927 0.999,0.385 1.994,0.773 2.996,1.151 C -0.766,1.771 -0.029,1.269 0,0" /></g><g
           transform="translate(23.8767,197.794)"
           id="g164"><path
             id="path166"
             style="fill:#e7e8e9;fill-opacity:1;fill-rule:nonzero;stroke:none"
             d="m 0,0 c 0.369,-0.156 0.626,-0.261 0.881,-0.375 4.331,-1.934 8.637,-3.921 13.003,-5.772 1.088,-0.461 0.751,-0.919 0.5,-1.654 -0.312,-0.919 -0.725,-0.877 -1.501,-0.525 -4.398,2.01 -8.825,3.963 -13.246,5.931 -0.365,0.163 -0.906,0.191 -0.553,0.827 C -0.62,-1.04 -0.579,-0.337 0,0" /></g><g
           transform="translate(261.125,153.9079)"
           id="g168"><path
             id="path170"
             style="fill:#e7e8e9;fill-opacity:1;fill-rule:nonzero;stroke:none"
             d="m 0,0 c -1.005,-0.343 -1.298,0.14 -1.444,1.132 -0.159,1.081 0.423,1.1 1.164,1.177 C 4.548,2.795 9.375,3.291 14.199,3.81 15.147,3.912 15.023,3.234 15.032,2.725 15.045,2.213 15.468,1.482 14.396,1.387 9.607,0.948 4.824,0.467 0,0" /></g><g
           transform="translate(222.1653,229.5139)"
           id="g172"><path
             id="path174"
             style="fill:#e7e8e9;fill-opacity:1;fill-rule:nonzero;stroke:none"
             d="m 0,0 c -0.452,0.423 -1.008,0.808 -1.371,1.329 -0.292,0.423 0.283,0.69 0.522,0.964 3.132,3.584 6.316,7.126 9.416,10.739 0.716,0.836 1.078,0.528 1.746,-0.01 0.779,-0.623 0.592,-0.982 0.026,-1.612 C 7.162,7.864 4.032,4.277 0.878,0.712 0.646,0.448 0.496,0.06 0,0" /></g><g
           transform="translate(42.071,227.5041)"
           id="g176"><path
             id="path178"
             style="fill:#e7e8e9;fill-opacity:1;fill-rule:nonzero;stroke:none"
             d="m 0,0 c 0.321,-0.245 0.547,-0.407 0.763,-0.585 3.73,-3.044 7.432,-6.125 11.213,-9.111 0.929,-0.738 0.433,-1.097 0.003,-1.743 -0.524,-0.785 -0.89,-0.649 -1.516,-0.13 -3.715,3.072 -7.461,6.096 -11.185,9.152 -0.27,0.226 -0.897,0.375 -0.499,0.941 C -0.859,-0.96 -0.42,-0.499 0,0" /></g><g
           transform="translate(29.3064,157.0712)"
           id="g180"><path
             id="path182"
             style="fill:#e7e8e9;fill-opacity:1;fill-rule:nonzero;stroke:none"
             d="m 0,0 c 0.2,-1.094 -0.423,-1.313 -1.689,-1.145 -4.487,0.598 -8.987,1.12 -13.49,1.597 -1.068,0.114 -1.354,0.381 -1.24,1.526 0.131,1.288 0.782,0.948 1.514,0.859 4.497,-0.538 9,-1.04 13.493,-1.616 C -0.878,1.154 0.124,1.482 0,0" /></g><g
           transform="translate(245.214,200.7171)"
           id="g184"><path
             id="path186"
             style="fill:#e7e8e9;fill-opacity:1;fill-rule:nonzero;stroke:none"
             d="M 0,0 C -0.032,0.407 1.679,1.838 2.178,1.717 2.91,1.542 2.932,0.741 3.263,0.213 3.301,0.149 3.196,-0.086 3.101,-0.137 1.705,-0.862 0.483,-1.978 -1.186,-2.08 c -0.27,-0.016 -0.55,0.083 -0.817,0.159 -0.408,0.118 -0.926,0.321 -0.805,0.76 0.083,0.29 0.623,0.589 1.081,0.283 0.299,-0.2 0.633,-0.225 0.942,-0.146 0.499,0.13 1.24,0.14 0.785,1.024" /></g><g
           transform="translate(138.4981,267.3396)"
           id="g188"><path
             id="path190"
             style="fill:#e7e8e9;fill-opacity:1;fill-rule:nonzero;stroke:none"
             d="M 0,0 C -0.337,1.024 -0.207,2.077 -0.038,3.177 0.067,2.865 0.172,2.554 0.277,2.245 -0.216,1.546 0.289,0.725 0,0" /></g><g
           transform="translate(189.0862,262.6362)"
           id="g192"><path
             id="path194"
             style="fill:#e7e8e9;fill-opacity:1;fill-rule:nonzero;stroke:none"
             d="M 0,0 C -0.149,-0.226 -0.363,-0.785 -0.512,-0.083 -0.63,0.471 -0.614,1.119 -0.293,1.676 -0.029,1.145 -0.525,0.483 0,0" /></g><g
           transform="translate(266.4275,161.4333)"
           id="g196"><path
             id="path198"
             style="fill:#e7e8e9;fill-opacity:1;fill-rule:nonzero;stroke:none"
             d="m 0,0 c -0.34,-0.27 -0.76,-0.242 -1.154,-0.308 -0.274,-0.058 -0.363,0.041 -0.258,0.302 0.274,0.089 0.544,0.178 0.817,0.267 C -0.397,0.175 -0.197,0.086 0,0" /></g><g
           transform="translate(31.7974,199.4235)"
           id="g200"><path
             id="path202"
             style="fill:#e7e8e9;fill-opacity:1;fill-rule:nonzero;stroke:none"
             d="M 0,0 C -0.328,0.114 -0.655,0.229 -1.18,0.413 -0.528,0.591 -0.102,0.591 0.299,0.273 0.2,0.181 0.099,0.092 0,0" /></g><g
           transform="translate(141.9288,265.6917)"
           id="g204"><path
             id="path206"
             style="fill:#e7e8e9;fill-opacity:1;fill-rule:nonzero;stroke:none"
             d="M 0,0 C 0.194,-0.204 0.401,-0.515 0.041,-0.617 -0.184,-0.684 -0.34,-0.293 -0.283,0.016 -0.188,0.01 -0.095,0.006 0,0" /></g><g
           transform="translate(268.3248,165.1381)"
           id="g208"><path
             id="path210"
             style="fill:#e7e8e9;fill-opacity:1;fill-rule:nonzero;stroke:none"
             d="M 0,0 C 0.312,0.223 0.642,0.334 1.037,0.172 0.868,-0.134 0.591,-0.232 0.283,-0.283 L 0,0" /></g><g
           transform="translate(36.2355,200.9954)"
           id="g212"><path
             id="path214"
             style="fill:#e7e8e9;fill-opacity:1;fill-rule:nonzero;stroke:none"
             d="M 0,0 C 0.194,-0.089 0.604,-0.204 0.487,-0.337 0.169,-0.703 -0.229,-0.477 -0.566,-0.239 -0.378,-0.159 -0.188,-0.079 0,0" /></g><g
           transform="translate(128.6029,24.8766)"
           id="g216"><path
             id="path218"
             style="fill:#e7e8e9;fill-opacity:1;fill-rule:nonzero;stroke:none"
             d="M 0,0 C 0.423,0 0.881,0.175 1.228,-0.229 1.205,-2.286 1.212,-4.341 1.154,-6.398 1.1,-8.5 0.995,-10.599 0.894,-12.701 c -0.019,-0.43 0.127,-0.989 -0.633,-0.989 -0.859,0 -0.643,0.601 -0.652,1.084 0,0.045 -0.007,0.095 0.006,0.14 0.48,1.615 -0.305,2.096 -1.787,2.124 -0.894,0.019 -1.708,0.461 -2.417,1.012 -1.002,0.782 -1.647,1.723 -1.488,3.11 0.207,1.809 0.308,3.628 0.461,5.444 0.035,0.42 0.035,0.846 0.69,0.786 0.674,-0.061 0.547,-0.522 0.522,-0.913 -0.115,-1.679 -0.226,-3.358 -0.392,-5.031 -0.197,-1.969 2.405,-3.997 4.265,-3.317 0.283,0.102 0.359,0.267 0.35,0.506 C -0.296,-5.826 0.356,-2.923 0,0" /></g><g
           transform="translate(210.1222,24.9017)"
           id="g220"><path
             id="path222"
             style="fill:#e7e8e9;fill-opacity:1;fill-rule:nonzero;stroke:none"
             d="m 0,0 c 0.897,-0.038 2.166,-0.48 3.425,-0.967 0.35,-0.136 0.703,-0.248 0.458,-0.785 -0.232,-0.503 -0.49,-0.55 -0.976,-0.34 -0.983,0.422 -2.01,0.731 -3.088,0.814 -1.171,0.089 -2.287,0.012 -2.716,-1.352 -0.188,-0.595 -0.649,-0.525 -1.005,-0.41 -0.525,0.168 -0.229,0.633 -0.137,0.941 C -3.629,-0.731 -2.299,0.038 0,0" /></g><g
           transform="translate(115.241,33.3516)"
           id="g224"><path
             id="path226"
             style="fill:#e7e8e9;fill-opacity:1;fill-rule:nonzero;stroke:none"
             d="M 0,0 C 0.623,-0.032 1.053,-0.331 1.123,-0.979 1.199,-1.705 0.779,-2.159 0.108,-2.204 -0.588,-2.252 -1.043,-1.771 -1.049,-1.094 -1.059,-0.49 -0.658,-0.086 0,0" /></g><g
           transform="translate(152.9227,29.1351)"
           id="g228"><path
             id="path230"
             style="fill:#e7e8e9;fill-opacity:1;fill-rule:nonzero;stroke:none"
             d="M 0,0 C 0.7,-0.07 1.097,-0.404 1.129,-1.059 1.161,-1.714 0.782,-2.15 0.159,-2.194 -0.553,-2.242 -0.983,-1.794 -0.986,-1.088 -0.989,-0.442 -0.576,-0.095 0,0" /></g><g
           transform="translate(265.0168,161.4279)"
           id="g232"><path
             id="path234"
             style="fill:#e7e8e9;fill-opacity:1;fill-rule:nonzero;stroke:none"
             d="M 0,0 C 0.086,-0.102 0.172,-0.204 0.254,-0.305 -0.025,-0.534 -0.363,-0.738 -0.614,-0.369 -0.681,-0.27 -0.264,-0.054 0,0" /></g><g
           transform="translate(26.2314,149.7661)"
           id="g236"><path
             id="path238"
             style="fill:#e7e8e9;fill-opacity:1;fill-rule:nonzero;stroke:none"
             d="m 0,0 c -0.188,-0.754 -0.865,-0.229 -1.237,-0.375 -0.945,0.076 -1.838,0.114 -2.716,0.238 -0.398,0.058 -1.053,-0.321 -1.154,0.379 -0.102,0.702 0.006,1.51 0.747,1.822 1.269,0.534 2.589,0.382 3.807,-0.204 C 0.213,1.495 0.172,0.687 0,0 M -8.66,0.144 C -8.87,0.081 -9.118,0.132 -9.35,0.132 v 0.07 c -0.416,0 -0.843,-0.058 -1.246,0.016 -0.468,0.079 -1.266,-0.255 -1.174,0.712 0.067,0.712 0.239,1.421 1.142,1.491 0.734,0.061 1.475,0.083 2.207,-0.114 0.877,-0.239 1.154,-0.84 1.059,-1.686 C -7.48,-0.377 -8.218,0.275 -8.66,0.144 M 1.567,3.506 c -1.59,1.438 -5.645,1.661 -7.368,0.353 -0.251,-0.193 -0.372,-0.537 -0.754,-0.13 -1.148,1.218 -2.687,1.215 -4.172,1.154 -2.055,-0.085 -2.945,-0.954 -3.225,-2.97 -0.101,-0.738 -0.028,-1.507 -0.175,-2.232 -0.27,-1.348 0.385,-1.632 1.552,-1.683 4.017,-0.184 8.033,-0.432 12.046,-0.671 2.894,-0.171 2.891,-0.181 2.971,2.793 0.031,1.211 0.181,2.436 -0.875,3.386" /></g><g
           transform="translate(19.2953,164.2164)"
           id="g240"><path
             id="path242"
             style="fill:#e7e8e9;fill-opacity:1;fill-rule:nonzero;stroke:none"
             d="m 0,0 c -0.56,0.203 -1.199,0.175 -1.784,0.324 -0.503,0.127 -1.415,-0.2 -1.317,0.744 0.089,0.878 0.102,1.915 1.33,2.204 C -0.124,3.657 1.577,2.693 1.558,1.049 1.622,0.207 1.377,-0.506 0,0 M 11.644,3.969 C 10.26,3.864 9.02,3.995 7.767,4.176 6.273,4.389 4.699,4.86 3.334,3.705 3.102,3.505 3.035,3.521 2.867,3.788 1.665,5.702 -0.294,5.722 -2.221,5.731 -3.659,5.734 -4.61,4.977 -4.953,3.578 -5.255,2.357 -5.459,1.114 -5.723,-0.117 c -0.165,-0.789 -0.067,-1.205 0.926,-1.371 4.783,-0.801 9.549,-1.704 14.32,-2.588 0.566,-0.108 1.008,-0.016 0.928,0.613 -0.07,0.554 0.833,1.419 -0.435,1.654 -1.835,0.337 -3.67,0.671 -5.508,1.002 -0.353,0.063 -0.732,-0.016 -0.799,0.544 -0.149,1.237 0.757,2.359 2.02,2.28 1.116,-0.07 2.213,-0.366 3.326,-0.455 2.363,-0.191 2.233,-0.754 2.608,2.029 0.013,0.089 -0.01,0.184 -0.019,0.378" /></g><g
           transform="translate(202.7181,259.2984)"
           id="g244"><path
             id="path246"
             style="fill:#e7e8e9;fill-opacity:1;fill-rule:nonzero;stroke:none"
             d="M 0,0 C 0.226,0.471 0.658,0.706 1.164,0.429 1.606,0.188 1.59,-0.222 1.405,-0.665 1.078,-1.447 0.56,-1.981 -0.318,-2.181 -0.452,-1.399 -0.325,-0.671 0,0 m -4.05,-10.491 c -0.855,0.009 -1.278,0.442 -1.405,1.24 -0.236,1.517 0.827,3.119 2.493,3.727 0,-1.253 -0.019,-2.493 0.006,-3.734 0.016,-0.779 -0.21,-1.243 -1.094,-1.233 m 5.009,6.576 c 1.195,0.493 1.876,1.65 2.293,2.888 C 3.745,0.432 3.296,1.628 2.021,2.299 0.835,2.922 -0.412,2.63 -1.344,1.498 -2.148,0.521 -2.527,-0.639 -2.587,-1.864 c -0.038,-0.75 -0.21,-1.148 -0.983,-1.421 -2.42,-0.859 -3.714,-2.716 -4.226,-5.165 -0.56,-2.674 1.075,-4.512 3.784,-4.302 0.258,0.019 0.735,0.381 0.779,-0.182 0.118,-1.434 1.396,-1.125 2.172,-1.771 0.22,3.05 0.226,3.046 2.023,5.387 0.397,0.515 0.747,1.072 1.091,1.628 0.289,0.471 0.664,0.916 -0.197,1.31 -0.671,0.309 -1.142,0.576 -1.489,-0.365 -0.153,-0.42 -0.505,-0.767 -0.998,-1.485 0,0.804 0.012,1.211 -0.004,1.615 -0.05,1.244 0.261,2.153 1.594,2.7" /></g><g
           transform="translate(170.9151,269.0947)"
           id="g248"><path
             id="path250"
             style="fill:#e7e8e9;fill-opacity:1;fill-rule:nonzero;stroke:none"
             d="m 0,0 c -0.334,-2.604 -0.811,-5.396 -1.676,-8.112 -0.267,-0.84 -0.617,-1.654 -1.701,-1.476 -1.171,0.197 -1.244,1.177 -1.148,2.067 0.299,2.78 0.785,5.527 1.602,8.205 0.287,0.944 0.544,2.041 1.874,1.793 C 0.229,2.239 -0.019,1.132 0,0 M -0.314,4.921 C -2.429,5.487 -4.19,4.438 -5.046,1.881 -6.041,-1.089 -6.617,-4.158 -6.887,-7.322 v -0.525 c 0.003,-2.426 0.963,-3.86 2.84,-4.232 2.111,-0.417 3.631,0.47 4.474,2.836 C 1.588,-5.98 2.246,-2.587 2.402,0.873 2.5,3.048 1.473,4.444 -0.314,4.921" /></g><g
           transform="translate(86.3769,246.4318)"
           id="g252"><path
             id="path254"
             style="fill:#e7e8e9;fill-opacity:1;fill-rule:nonzero;stroke:none"
             d="m 0,0 c -0.506,-0.261 -1.005,-0.191 -1.428,0.191 -0.277,0.248 -0.556,0.512 -0.763,0.817 -1.6,2.36 -3.037,4.815 -4.134,7.457 -0.334,0.802 -0.617,1.695 0.308,2.258 0.999,0.605 1.705,-0.086 2.226,-0.842 C -2.128,7.451 -0.646,4.913 0.496,2.188 0.604,1.93 0.671,1.657 0.731,1.476 0.805,0.76 0.556,0.286 0,0 m -3.56,12.897 c -0.925,0.839 -2.14,0.785 -3.301,0.219 -2.063,-1.008 -2.741,-2.725 -1.799,-5.196 1.167,-3.066 2.782,-5.909 4.741,-8.545 0.385,-0.518 0.875,-0.983 1.393,-1.371 1.154,-0.865 2.388,-0.938 3.679,-0.248 1.32,0.706 2.048,1.743 2.071,3.33 C 1.815,5.5 -0.023,9.698 -3.56,12.897" /></g><g
           transform="translate(152.0014,268.3938)"
           id="g256"><path
             id="path258"
             style="fill:#e7e8e9;fill-opacity:1;fill-rule:nonzero;stroke:none"
             d="m 0,0 c -0.067,-1.771 -0.14,-3.549 -0.503,-5.298 -0.165,-0.792 -0.467,-1.456 -1.415,-1.437 -1.03,0.019 -1.345,0.776 -1.399,1.609 -0.073,1.068 -0.019,2.149 -0.019,2.874 -0.099,2.039 0.099,3.712 0.277,5.388 0.044,0.413 0.152,0.823 0.257,1.23 0.175,0.697 0.547,1.183 1.345,1.174 C -0.658,5.53 -0.302,5.037 -0.14,4.331 0.194,2.897 0.051,1.441 0,0 M 2.228,4.617 C 1.929,7.107 0.113,8.417 -2.323,7.984 -4.212,7.647 -4.918,6.149 -5.191,4.572 -5.783,1.157 -6.123,-2.297 -5.598,-5.763 c 0.34,-2.265 1.497,-3.403 3.495,-3.517 1.978,-0.112 3.25,0.944 3.829,3.151 0.575,2.194 0.543,4.446 0.683,6.685 0.137,1.361 -0.022,2.719 -0.181,4.061" /></g><g
           transform="translate(269.1809,173.825)"
           id="g260"><path
             id="path262"
             style="fill:#e7e8e9;fill-opacity:1;fill-rule:nonzero;stroke:none"
             d="m 0,0 c -1.81,-0.709 -3.622,-1.418 -5.435,-2.131 -0.55,1.743 -0.553,1.768 1.135,1.982 1.435,0.181 2.875,0.289 4.31,0.432 C 0.079,0.216 0.102,0.153 0.076,0.092 0.051,0.032 0.025,0 0,0 M 3.482,2.309 C 3.18,2.872 2.353,2.404 1.857,2.512 -2.754,2.181 -7.28,1.806 -11.811,1.561 -13.074,1.491 -13.204,1.075 -12.905,0 c 0.213,-0.757 0.559,-0.964 1.281,-0.849 0.786,0.127 1.578,0.207 2.373,0.257 0.283,0.02 0.598,0.163 0.849,-0.235 0.753,-1.199 0.439,-2.318 -0.862,-2.862 -0.646,-0.267 -1.352,-0.452 -1.918,-0.836 -0.906,-0.617 -0.136,-1.4 -0.031,-2.096 0.117,-0.789 0.597,-0.321 0.928,-0.178 4.573,1.994 9.146,3.991 13.71,6.007 0.263,0.118 0.779,0.14 0.712,0.544 -0.14,0.871 -0.248,1.803 -0.655,2.557" /></g><g
           transform="translate(269.1809,173.8249)"
           id="g264"><path
             id="path266"
             style="fill:#e7e8e9;fill-opacity:1;fill-rule:nonzero;stroke:none"
             d="M 0,0 C 0.003,0.095 0.006,0.188 0.01,0.283 0.207,0.506 0.512,0.709 0.636,0.356 0.709,0.14 0.308,-0.029 0,0" /></g><g
           transform="translate(23.6808,183.9685)"
           id="g268"><path
             id="path270"
             style="fill:#ffffff;fill-opacity:1;fill-rule:nonzero;stroke:none"
             d="M 0,0 C 1.332,-0.219 2.665,-0.464 4.004,-0.646 4.967,-0.776 4.583,-1.323 4.462,-1.844 4.306,-2.509 4.026,-2.643 3.403,-2.299 2.096,-1.584 0.754,-0.932 -0.576,-0.251 -0.576,0.273 -0.258,0.067 0,0" /></g><g
           transform="translate(23.6808,183.9685)"
           id="g272"><path
             id="path274"
             style="fill:#e7e8e9;fill-opacity:1;fill-rule:nonzero;stroke:none"
             d="M 0,0 C -0.191,-0.083 -0.385,-0.169 -0.576,-0.251 -0.855,-0.146 -1.135,-0.045 -1.53,0.102 -0.887,0.391 -0.436,0.273 0,0" /></g><g
           transform="translate(260.4626,193.7121)"
           id="g276"><path
             id="path278"
             style="fill:#e7e8e9;fill-opacity:1;fill-rule:nonzero;stroke:none"
             d="m 0,0 c -1.279,-0.172 -1.676,0.7 -2.105,1.606 -0.226,0.477 0.133,0.556 0.416,0.69 0.837,0.391 1.683,0.763 2.522,1.154 1.326,0.614 1.959,0.223 2,-1.246 C 2.862,1.208 1.52,0.207 0,0 M 5.101,3.061 C 4.675,4.189 4.118,5.271 3.676,6.396 3.45,6.969 3.193,7.045 2.646,6.794 -1.879,4.72 -6.408,2.65 -10.955,0.621 c -1.085,-0.483 -0.325,-1.046 -0.166,-1.564 0.166,-0.531 0.337,-1.062 1.158,-0.643 1.405,0.722 2.903,1.269 4.293,2.02 0.989,0.534 1.482,0.518 1.889,-0.671 0.461,-1.339 1.364,-2.347 2.69,-2.274 2.109,0.035 3.648,0.798 5.076,1.794 1.434,0.998 1.752,2.089 1.116,3.778" /></g><g
           transform="translate(144.9019,226.3828)"
           id="g280"><path
             id="path282"
             style="fill:#e7e8e9;fill-opacity:1;fill-rule:nonzero;stroke:none"
             d="m 0,0 c -45.956,0.079 -83.188,-37.083 -83.287,-83.131 -0.102,-45.908 37.23,-83.408 83.061,-83.44 45.778,-0.031 83.004,37.227 83.147,83.214 C 83.061,-37.477 45.857,-0.079 0,0 M -2.242,-162.707 H -3.38 c -11.497,0.573 -22.706,3.413 -33.099,9.032 -22.302,12.056 -36.161,30.529 -41.43,55.346 -1.186,5.585 -1.654,11.286 -1.441,16.998 0.69,18.658 6.847,35.248 18.903,49.587 3.625,4.312 7.66,8.189 12.138,11.608 1.263,0.966 1.278,0.957 1.762,-0.528 6.277,-19.278 12.545,-38.559 18.826,-57.837 5.975,-18.343 11.97,-36.679 17.945,-55.025 2.964,-9.105 5.899,-18.219 8.851,-27.327 0.607,-1.876 0.617,-1.873 -1.317,-1.854 m 2.617,11.385 c -0.782,2.369 -1.498,4.516 -2.197,6.669 -13.662,42.152 -27.314,84.311 -41.008,126.456 -0.394,1.218 -0.264,1.823 0.897,2.545 9.922,6.153 20.674,10.007 32.24,11.333 17.646,2.02 34.212,-1.421 49.559,-10.475 0.68,-0.401 1.148,-0.677 0.839,-1.704 -13.375,-44.744 -26.706,-89.501 -40.047,-134.255 -0.035,-0.111 -0.105,-0.21 -0.283,-0.569 m 61.853,19.326 c -10.86,-14.095 -24.922,-23.501 -42.101,-28.237 -5.616,-1.545 -11.337,-2.296 -17.125,-2.696 -1.953,-0.134 -1.978,-0.086 -1.441,1.726 9.102,30.816 18.197,61.634 27.302,92.449 4.897,16.572 9.807,33.14 14.711,49.708 0.143,0.484 0.308,0.961 0.493,1.54 2.649,-1.683 5.021,-3.569 7.298,-5.572 12.463,-10.981 20.842,-24.496 24.942,-40.607 2.067,-8.112 2.811,-16.352 2.261,-24.735 -1.066,-16.189 -6.456,-30.745 -16.34,-43.576" /></g><g
           transform="translate(202.5135,31.4945)"
           id="g284"><path
             id="path286"
             style="fill:#e7e8e9;fill-opacity:1;fill-rule:nonzero;stroke:none"
             d="m 0,0 c -1.422,-0.566 -2.827,-1.174 -4.239,-1.765 -0.808,1.406 -1.609,2.818 -2.43,4.217 -0.219,0.375 -0.308,0.614 0.204,0.859 1.3,0.619 2.569,1.306 3.851,1.968 0.124,0.064 0.245,0.133 0.347,0.191 0.416,0.044 0.451,-0.315 0.569,-0.531 C -0.989,3.628 -0.34,2.286 0.398,0.995 0.738,0.398 0.525,0.21 0,0 m -5.631,-6.054 c -0.547,-0.003 -0.89,0.321 -0.798,0.896 0.131,0.799 0.614,1.463 1.374,1.584 0.626,0.099 0.607,-0.645 0.725,-1.091 -0.118,-0.791 -0.436,-1.38 -1.301,-1.389 m -23.383,-5.264 c 0.026,-0.455 0.261,-0.9 0.299,-1.355 0.048,-0.594 0.7,-1.491 0.131,-1.711 -0.948,-0.365 -2.118,-0.877 -3.076,0.252 -0.871,1.027 -1.812,1.993 -2.782,3.049 1.383,0.178 2.856,0.36 4.322,0.563 0.642,0.089 1.065,-0.019 1.106,-0.798 m -7.704,-3.99 c -1.056,0.134 -1.479,0.821 -1.447,1.861 0.035,1.148 0.84,1.564 1.746,1.889 0.248,0.092 0.439,-0.083 0.595,-0.255 0.967,-1.059 1.924,-2.118 2.913,-3.209 -1.212,-0.318 -2.506,-0.451 -3.807,-0.286 M 4.71,-4.602 C 3.235,-1.794 1.762,1.018 0.284,3.829 -0.925,6.131 -0.918,6.119 1.301,7.556 1.616,7.759 2.303,7.807 1.893,8.548 1.464,9.327 1.06,8.837 0.659,8.593 -2.213,6.844 -5.164,5.234 -8.214,3.826 c -10.103,-4.672 -20.629,-7.922 -31.692,-9.347 -0.481,-0.063 -1.253,0.086 -1.075,-0.865 0.165,-0.877 0.83,-0.448 1.23,-0.388 2.265,0.331 4.526,0.694 6.777,1.12 2.519,0.474 2.512,0.508 3.107,-2 0.382,-1.613 0.372,-1.549 -1.32,-1.785 -2.07,-0.289 -4.216,-0.235 -6.169,-1.148 -1.771,-0.826 -2.452,-2.292 -1.902,-4.006 0.515,-1.606 2.15,-2.335 4.424,-2.01 1.943,0.28 3.899,0.483 5.835,0.792 0.764,0.124 1.132,-0.09 1.237,-0.837 0.064,-0.442 0,-1.002 0.767,-0.852 0.893,0.172 0.464,0.782 0.372,1.199 -0.782,3.504 -1.584,7.009 -2.42,10.504 -0.178,0.747 -0.048,1.033 0.769,1.243 2.665,0.674 5.314,1.431 7.941,2.242 2.868,0.887 2.808,0.913 3.813,-1.956 0.464,-1.326 0.611,-2.455 -0.591,-3.469 -0.338,-0.283 -0.388,-0.576 -0.929,-0.156 -1.845,1.431 -4.204,0.839 -5.317,-1.224 -1.975,-3.658 0.626,-7.823 4.913,-7.909 0.49,-0.01 0.677,0.124 0.754,0.572 0.076,0.442 -0.143,0.534 -0.525,0.617 -1.237,0.267 -2.449,0.633 -3.441,1.469 -1.18,0.996 -1.386,2.277 -1.005,3.692 0.309,1.148 0.9,2.08 2.179,2.296 0.989,0.166 1.857,-0.06 1.889,-1.256 0.015,-0.528 0.012,-0.852 0.569,-1.043 0.75,-0.261 0.738,0.42 0.938,0.748 0.776,1.291 1.596,2.54 2.798,3.479 0.85,0.661 1.772,1.023 2.859,0.511 1.139,-0.537 1.257,-1.535 1.225,-2.601 -0.051,-1.59 -0.678,-2.989 -1.466,-4.331 -0.229,-0.385 -0.21,-0.63 0.219,-0.887 0.464,-0.277 0.652,-0.089 0.865,0.289 0.906,1.603 1.577,3.279 1.663,4.862 -0.009,2.789 -1.879,4.488 -4.089,4.131 -0.706,-0.114 -1.371,-1.059 -1.972,-0.48 -0.471,0.455 -0.493,1.374 -0.719,2.083 -0.114,0.356 -0.21,0.722 -0.365,1.059 -0.309,0.662 -0.131,0.98 0.572,1.237 1.663,0.611 3.292,1.313 4.926,2 2.493,1.043 2.442,1.024 3.826,-1.316 0.795,-1.342 1.583,-2.436 -0.242,-3.699 -0.868,-0.601 -1.17,-1.86 -0.315,-2.887 0.636,-0.766 1.472,-1.129 2.5,-0.69 1.081,0.461 2.134,1.854 1.672,2.763 -0.865,1.715 0.315,1.902 1.368,2.322 0.738,0.292 1.498,0.55 2.181,0.938 0.748,0.423 1.063,0.146 1.384,-0.522 0.566,-1.173 1.183,-2.327 1.831,-3.463 0.179,-0.311 0.112,-1.03 0.913,-0.668 0.798,0.363 0.395,0.76 0.162,1.199" /></g><g
           transform="translate(105.916,22.8154)"
           id="g288"><path
             id="path290"
             style="fill:#e7e8e9;fill-opacity:1;fill-rule:nonzero;stroke:none"
             d="m 0,0 c -0.49,-0.137 -0.808,-0.439 -0.805,-0.989 0,-0.239 0.039,-0.496 0.309,-0.553 0.582,-0.128 0.614,0.464 0.862,0.744 0.311,0.356 0.47,0.985 1.037,0.273 0.015,0.134 0.031,0.271 0.047,0.404 C 0.992,0.219 0.493,0.14 0,0" /></g><g
           transform="translate(105.6553,22.0617)"
           id="g292"><path
             id="path294"
             style="fill:#e7e8e9;fill-opacity:1;fill-rule:nonzero;stroke:none"
             d="M 0,0 C 0.26,0.32 0.533,0.543 0.839,0.651 0.567,0.453 0.313,0.04 0,0 m -23.034,6.51 c -0.191,0.439 -0.245,0.912 0.232,1.256 0.486,0.35 0.9,0.086 1.265,-0.201 1.253,-0.982 1.291,-2.461 1.743,-4.054 -1.692,0.626 -2.639,1.637 -3.24,2.999 M 11.102,6.335 C 10.876,6.389 10.65,6.443 10.424,6.5 c -9.81,2.465 -19.319,5.705 -28.042,10.959 -0.404,0.241 -0.795,0.706 -1.224,-0.064 -0.426,-0.757 0.286,-0.779 0.585,-0.967 3.164,-2 6.516,-3.647 9.966,-5.078 1.47,-0.608 0.303,-1.361 0.22,-2.026 -0.124,-1.014 -0.76,-0.34 -1.113,-0.204 -1.867,0.716 -3.629,1.699 -5.565,2.262 -0.827,0.241 -1.603,0.213 -2.204,-0.442 -0.598,-0.656 -0.528,-1.454 -0.27,-2.249 0.305,-0.951 0.979,-1.695 1.421,-2.566 0.324,-0.643 0.579,-1.323 0.035,-1.972 -0.598,-0.709 -1.453,-0.89 -2.299,-0.785 -0.798,0.095 -0.601,0.925 -0.757,1.453 -0.439,1.482 -0.76,3.011 -2.226,3.908 -0.884,0.544 -1.768,0.636 -2.598,-0.044 -0.821,-0.674 -0.961,-1.546 -0.566,-2.528 0.737,-1.842 2.022,-3.158 3.899,-3.759 0.74,-0.239 1.068,-0.589 1.24,-1.288 0.286,-1.18 0.639,-2.338 0.96,-3.508 0.118,-0.426 0.235,-0.792 0.833,-0.652 0.668,0.159 0.461,0.611 0.366,0.989 -0.219,0.856 -0.426,1.727 -0.747,2.547 -0.414,1.056 -0.372,1.575 0.979,1.829 2.217,0.417 3.005,2.252 2.023,4.265 -0.328,0.667 -0.783,1.272 -1.136,1.93 -0.263,0.486 -0.617,1.075 -0.155,1.545 0.381,0.392 0.992,0.178 1.459,-0.015 1.724,-0.706 3.422,-1.489 5.155,-2.176 0.684,-0.27 0.604,-0.604 0.404,-1.164 -0.871,-2.41 -1.711,-4.833 -2.515,-7.269 -0.109,-0.328 -0.646,-0.805 0.184,-1.117 0.843,-0.314 0.798,0.293 0.954,0.742 1.062,3.036 2.124,6.07 3.187,9.107 0.826,2.373 0.81,2.325 3.189,1.47 0.859,-0.309 0.875,-0.656 0.604,-1.409 -1.253,-3.511 -2.458,-7.041 -3.657,-10.571 -0.14,-0.417 -0.636,-0.967 0.229,-1.231 0.827,-0.251 0.77,0.436 0.922,0.875 C -4.637,0.731 -3.4,4.15 -2.28,7.61 -1.94,8.669 -1.533,8.831 -0.537,8.44 0.979,7.845 2.554,7.4 4.109,6.913 5.349,6.526 7.12,6.538 7.712,5.705 8.395,4.738 7.206,3.193 7.095,1.87 6.971,0.417 6.347,0.451 5.219,0.855 3.609,1.425 2.035,2.274 0.226,2.003 -1.075,1.806 -1.838,0.836 -1.72,-0.461 c 0.085,-0.951 0.559,-1.613 1.545,-1.692 0.986,-0.076 1.743,0.96 1.838,2.382 C 1.501,0.529 1.358,0.67 1.223,0.725 1.376,0.724 1.537,0.696 1.711,0.633 3.069,0.464 4.274,-0.204 5.584,-0.522 6.303,-0.693 6.392,-1.072 6.217,-1.727 5.8,-3.257 5.444,-4.802 5.075,-6.344 4.964,-6.805 4.614,-7.362 5.482,-7.511 c 0.773,-0.134 0.652,0.464 0.757,0.88 0.837,3.397 1.683,6.793 2.497,10.193 0.279,1.17 0.426,2.394 2.153,1.571 0.356,-0.172 0.718,-0.089 0.868,0.403 0.187,0.63 -0.239,0.697 -0.655,0.799" /></g><g
           transform="translate(151.8636,17.9068)"
           id="g296"><path
             id="path298"
             style="fill:#e7e8e9;fill-opacity:1;fill-rule:nonzero;stroke:none"
             d="M 0,0 C -0.413,0.064 -0.839,0.051 -1.259,0.073 -3.702,0.248 -3.8,0.242 -3.959,2.69 -4.204,6.449 -4.665,5.552 -1.208,5.902 0.286,6.052 1.015,5.718 0.919,4.08 0.862,3.11 0.925,2.102 1.132,1.151 1.371,0.044 0.944,-0.153 0,0 m -5.059,-2.064 c -0.166,-0.626 0.044,-1.615 -1.043,-1.57 -0.633,0.025 -1.126,0.604 -1.094,1.243 0.054,1.008 0.992,0.909 1.673,1.059 0.671,0.146 0.464,-0.356 0.464,-0.732 M 4.272,7.571 C 1.849,7.386 -0.571,7.1 -2.997,7.017 -11.914,6.719 -20.745,7.619 -29.532,9.04 c -0.426,0.07 -0.827,0.28 -0.922,-0.407 -0.073,-0.557 0.146,-0.719 0.671,-0.792 2.172,-0.315 4.322,-0.782 6.522,-0.871 0.379,-0.245 0.849,0.016 1.228,-0.229 1.071,-0.111 2.143,-0.344 3.208,-0.309 2.217,0.077 3.753,-0.849 4.891,-2.722 0.656,-1.081 1.479,-2.045 1.565,-3.38 0.07,-1.11 -0.461,-1.768 -1.514,-2.029 -1.917,-0.48 -2.445,-0.185 -3.59,2.019 -0.232,0.442 -0.305,1.031 -1.072,0.636 -0.763,-0.394 -0.184,-0.83 -0.028,-1.141 1.548,-3.139 3.612,-5.893 6.335,-8.116 0.292,-0.242 0.566,-1.011 1.192,-0.264 0.591,0.703 -0.089,0.884 -0.417,1.174 -1.415,1.256 -2.754,2.575 -3.883,4.245 0.465,0.044 0.748,0.051 1.021,0.095 2.805,0.465 3.87,2.312 2.866,4.99 -0.366,0.973 -0.98,1.8 -1.597,2.623 -0.292,0.388 -0.779,0.665 -0.808,1.171 1.835,0 3.645,0.054 5.448,-0.013 3.101,-0.111 3.034,-0.149 3.279,-3.225 0.121,-1.545 0.174,-2.735 -1.851,-2.97 -0.961,-0.111 -1.628,-0.925 -1.507,-2.051 0.124,-1.167 1.332,-2.35 2.429,-2.376 1.174,-0.025 1.698,0.687 2.083,1.715 0.254,0.677 -0.21,1.695 0.55,1.993 0.69,0.271 1.568,0.058 2.363,0.051 0.423,-0.003 0.846,-0.054 1.263,-0.031 C 0.978,-1.13 1.376,-1.372 1.401,-2.259 1.442,-3.614 1.592,-4.965 1.77,-6.31 1.824,-6.708 1.503,-7.455 2.428,-7.391 3.331,-7.328 2.981,-6.651 2.95,-6.234 2.708,-3.016 2.403,0.196 2.155,3.414 1.957,5.997 1.986,5.99 4.489,6.416 4.88,6.483 5.535,6.226 5.446,7.049 5.354,7.902 4.743,7.606 4.272,7.571" /></g><g
           transform="translate(148.08,168.724)"
           id="g300"><path
             id="path302"
             style="fill:#e7e8e9;fill-opacity:1;fill-rule:nonzero;stroke:none"
             d="M 0,0 C -0.455,0.283 -0.846,0.63 -1.183,1.307 -0.471,1.084 -0.038,0.75 0.359,0.353 0.242,0.235 0.121,0.118 0,0" /></g><g
           transform="translate(138.8005,168.8255)"
           id="g304"><path
             id="path306"
             style="fill:#e7e8e9;fill-opacity:1;fill-rule:nonzero;stroke:none"
             d="M 0,0 C 0.175,0.27 0.413,0.436 0.964,0.458 0.582,0.102 0.315,-0.149 0.051,-0.398 0.035,-0.264 0.016,-0.134 0,0" /></g><g
           transform="translate(178.9254,113.3744)"
           id="g308"><path
             id="path310"
             style="fill:#e7e8e9;fill-opacity:1;fill-rule:nonzero;stroke:none"
             d="m 0,0 c 0.855,-1.275 1.434,-2.7 2.15,-4.048 0.35,-0.665 -0.252,-1.4 0.375,-2.055 0.366,-0.381 0.731,-0.915 1.17,-0.772 0.496,0.159 1.043,0.232 1.435,0.973 0.626,1.189 2.079,1.513 3.393,1.79 0.432,-5.956 -1.638,-11.483 -2.942,-17.144 -0.124,-0.525 -0.299,-0.865 -0.929,-0.496 -0.356,0.207 -0.791,0.277 -1.167,0.458 -0.871,0.426 -2.172,0.407 -2.575,1.208 -0.366,0.732 0.381,1.737 0.686,2.599 0.302,0.855 -0.168,1.345 -0.677,1.806 -0.525,0.477 -1.126,0.327 -1.676,-0.035 -0.973,-0.639 -1.59,-1.565 -2.016,-2.62 -0.232,-0.582 -0.512,-0.748 -1.148,-0.49 -1.418,0.579 -3.45,0.671 -4.147,1.698 -0.658,0.973 0.697,2.694 1.132,4.096 0.493,1.6 1.24,3.129 1.622,4.751 C -4.513,-4.866 -2.671,-2.182 0,0" /></g><g
           transform="translate(202.6229,152.4559)"
           id="g312"><path
             id="path314"
             style="fill:#e7e8e9;fill-opacity:1;fill-rule:nonzero;stroke:none"
             d="m 0,0 c -0.28,-0.226 -0.563,-0.448 -0.833,-0.681 -1.479,-1.281 -1.609,-1.281 -2.706,0.283 -0.338,0.481 -0.586,0.799 -1.158,0.284 -0.429,-0.392 -1.145,-0.627 -0.423,-1.358 0.843,-0.853 0.48,-1.244 -0.522,-1.524 -1.965,-0.553 -3.908,-1.173 -5.943,-1.44 0.054,0.229 0.057,0.48 0.165,0.677 1.838,3.342 1.918,6.853 0.996,10.456 -0.109,0.417 -0.201,0.783 0.283,1.082 6.398,3.981 9.362,10.278 11.537,17.115 0.582,1.825 1.049,3.682 1.317,5.571 0.152,1.104 0.855,0.859 1.399,0.754 C 4.878,31.066 4.379,30.507 4.277,30.125 3.568,27.517 2.977,24.872 2.102,22.321 0.111,16.53 0.639,10.822 2.433,5.145 2.76,4.109 2.62,3.441 1.953,2.659 1.24,1.829 0.401,1.069 0,0" /></g><g
           transform="translate(159.9781,73.4053)"
           id="g316"><path
             id="path318"
             style="fill:#e7e8e9;fill-opacity:1;fill-rule:nonzero;stroke:none"
             d="m 0,0 c -0.293,0.493 -0.506,0.846 -0.728,1.215 -0.5,-0.169 -0.681,-0.63 -0.897,-0.996 -0.572,-0.973 -1.189,-1.618 -2.455,-1.081 -0.588,0.251 -1.139,-0.286 -1.717,-0.423 -0.487,-0.117 -0.938,-0.464 -1.552,-0.194 3.8,3.06 7.301,6.386 10.361,10.164 2.744,3.39 5.126,6.996 6.547,11.159 0.245,0.709 0.525,0.865 1.177,0.518 0.407,-0.216 0.878,-0.315 1.304,-0.502 0.881,-0.385 2.331,-0.36 2.538,-1.123 0.197,-0.715 -0.691,-1.736 -1.126,-2.611 C 11.452,12.119 9.334,8.182 6.646,4.579 6.004,3.718 5.301,2.903 4.455,2.229 4.268,2.08 4.045,1.682 3.784,2.019 2.659,3.469 2.156,2.105 1.504,1.523 1.018,1.091 0.585,0.598 0,0" /></g><g
           transform="translate(172.3639,76.7437)"
           id="g320"><path
             id="path322"
             style="fill:#e7e8e9;fill-opacity:1;fill-rule:nonzero;stroke:none"
             d="M 0,0 C -0.051,0.652 -0.086,1.091 -0.134,1.679 -1.218,1.158 -2.207,0.684 -3.355,0.134 c 0.048,0.661 0.48,0.887 0.757,1.183 3.517,3.765 6.971,7.575 8.974,12.427 0.21,0.509 0.506,0.598 0.973,0.423 1.177,-0.442 2.35,-0.903 3.54,-1.307 0.613,-0.206 0.69,-0.454 0.372,-1.011 C 9.159,8.154 7.05,4.458 4.223,1.247 3.74,0.696 3.164,-0.108 2.792,1.342 2.601,2.08 2.264,1.94 1.825,1.549 1.282,1.062 0.712,0.601 0,0" /></g><g
           transform="translate(197.1996,141.9326)"
           id="g324"><path
             id="path326"
             style="fill:#e7e8e9;fill-opacity:1;fill-rule:nonzero;stroke:none"
             d="M 0,0 C -0.566,0.569 -1.145,1.126 -1.692,1.708 -2.013,2.051 -1.988,2.865 -2.846,2.379 -3.489,2.016 -4.121,1.809 -3.457,0.897 -3.034,0.318 -3.749,0.324 -3.994,0.242 -5.441,-0.251 -6.91,-0.684 -8.37,-1.138 -8.548,0.7 -7.909,2.302 -6.952,3.819 -4.055,4.557 -1.158,5.298 1.736,6.039 1.402,3.956 0.445,2.051 0,0" /></g><g
           transform="translate(96.9555,109.8438)"
           id="g328"><path
             id="path330"
             style="fill:#e7e8e9;fill-opacity:1;fill-rule:nonzero;stroke:none"
             d="m 0,0 c 0.722,-1.581 0.929,-3.307 1.345,-4.971 0.216,-0.849 0.639,-1.17 1.412,-1.265 5.044,-0.636 10.087,-1.266 15.125,-1.927 0.68,-0.089 0.842,0.127 0.979,0.772 0.461,2.147 1.978,3.527 3.877,3.677 2.267,0.178 3.997,-0.776 4.792,-2.649 0.814,-1.924 0.334,-4.122 -1.339,-5.448 -0.626,-0.496 -0.62,-0.89 -0.381,-1.536 1.717,-4.646 3.406,-9.302 5.088,-13.957 0.254,-0.7 0.531,-1.126 1.44,-1.187 2.185,-0.149 3.877,-2.162 3.912,-4.407 0.032,-2.312 -1.647,-4.29 -3.892,-4.586 -2.398,-0.318 -4.815,0.957 -4.974,3.215 -0.156,2.188 -1.431,2.675 -2.986,3.339 -4.942,2.102 -9.855,4.278 -14.781,6.424 -0.255,0.474 -0.102,0.862 0.257,1.205 0.754,0.229 1.368,-0.203 1.994,-0.47 4.681,-2.007 9.35,-4.049 14.005,-6.116 0.767,-0.343 1.438,-0.61 2.134,0.185 0.712,0.804 1.752,1.266 1.158,2.77 -1.635,4.124 -3.126,8.309 -4.596,12.501 -0.318,0.906 -0.845,1.342 -1.844,1.377 -1.504,0.051 -2.684,0.792 -3.431,2.102 -0.458,0.801 -1.069,1.18 -1.997,1.304 -4.538,0.604 -9.086,1.151 -13.618,1.796 -0.963,0.137 -1.141,-0.21 -0.95,-1.084 0.591,-2.694 1.3,-5.362 1.952,-8.039 0.153,-0.63 0.426,-1.25 0.235,-1.924 -0.337,-0.487 -0.731,-0.824 -1.37,-0.557 -0.474,0.449 -0.573,1.062 -0.697,1.654 -0.585,2.792 -1.345,5.543 -2.022,8.313 -0.49,1.994 -0.601,2.076 -2.592,2.28 -1.673,0.175 -3.33,0.489 -5.005,0.658 -0.506,0.051 -1.018,0.162 -1.431,0.512 -0.284,0.499 -0.153,0.916 0.251,1.278 1.873,0.42 3.679,-0.232 5.511,-0.4 2.334,-0.217 2.309,-0.302 1.762,2.041 -0.207,0.891 -0.659,1.765 -0.325,2.729 C -0.76,-0.029 -0.455,0.181 0,0" /></g><g
           transform="translate(103.9545,130.0893)"
           id="g332"><path
             id="path334"
             style="fill:#e7e8e9;fill-opacity:1;fill-rule:nonzero;stroke:none"
             d="m 0,0 c 0.302,-0.064 0.607,-0.127 0.913,-0.194 2.331,-1.326 3.116,-3.447 2.06,-5.556 -1.03,-2.057 -3.097,-2.62 -5.73,-1.564 -0.48,0.051 -0.814,0.334 -1.113,0.68 -1.18,1.724 -1.294,3.47 -0.105,5.244 0.254,0.382 0.556,0.719 0.938,0.98 C -2.08,0.121 -1.107,0.563 0,0" /></g><g
           transform="translate(89.0809,105.0021)"
           id="g336"><path
             id="path338"
             style="fill:#e7e8e9;fill-opacity:1;fill-rule:nonzero;stroke:none"
             d="m 0,0 c -0.114,-0.369 -0.232,-0.741 -0.347,-1.11 0.112,-0.407 -0.108,-0.703 -0.337,-0.992 -0.286,-0.315 -0.582,-0.614 -1.04,-0.662 -1.036,-0.426 -2.057,-0.807 -3.231,-0.492 -2.773,0.737 -4.28,4.433 -1.431,7.107 0.277,0.496 0.738,0.735 1.256,0.894 C -2.356,5.063 -0.541,4.026 0.149,1.72 0.328,1.129 0.49,0.534 0,0" /></g><g
           transform="translate(103.1757,161.8569)"
           id="g340"><path
             id="path342"
             style="fill:#e7e8e9;fill-opacity:1;fill-rule:nonzero;stroke:none"
             d="m 0,0 c -0.302,-0.073 -0.601,-0.146 -0.903,-0.219 -0.919,-0.411 -1.778,-0.458 -2.477,0.416 -0.315,0.267 -0.63,0.538 -0.945,0.805 -1.911,1.364 -1.87,4.29 0.076,5.6 0.29,0.21 0.579,0.416 0.865,0.626 2.185,0.799 3.89,0.449 5.057,-1.036 C 2.709,4.872 2.792,3.027 1.899,1.596 1.434,0.855 0.741,0.404 0,0" /></g><g
           transform="translate(76.4219,124.2748)"
           id="g344"><path
             id="path346"
             style="fill:#e7e8e9;fill-opacity:1;fill-rule:nonzero;stroke:none"
             d="m 0,0 c -1.879,0.076 -3.19,0.979 -3.816,2.751 -0.531,1.507 0.025,3.358 1.259,4.309 1.555,1.196 3.18,1.154 4.821,0.156 C 2.776,7.254 3.066,6.929 3.339,6.57 4.312,5.06 4.541,3.492 3.667,1.851 3.403,1.428 3.047,1.091 2.684,0.754 2.182,0.369 1.631,0.073 1.034,-0.137 0.671,-0.232 0.324,-0.197 0,0" /></g><g
           transform="translate(90.2827,146.0604)"
           id="g348"><path
             id="path350"
             style="fill:#e7e8e9;fill-opacity:1;fill-rule:nonzero;stroke:none"
             d="M 0,0 1.269,-0.359 C 3.231,-0.995 4.233,-3.431 3.368,-5.479 3.151,-5.998 2.853,-6.468 2.465,-6.875 2.15,-7.197 1.803,-7.476 1.415,-7.705 c -1.596,-0.891 -3.12,-0.748 -4.576,0.334 -0.283,0.244 -0.525,0.518 -0.56,0.915 C -5.81,-3.492 -3.657,0.328 0,0" /></g><g
           transform="translate(96.9555,109.8438)"
           id="g352"><path
             id="path354"
             style="fill:#e7e8e9;fill-opacity:1;fill-rule:nonzero;stroke:none"
             d="m 0,0 c -0.293,-0.143 -0.585,-0.286 -0.878,-0.432 -0.804,-0.926 -1.8,-0.649 -2.709,-0.322 -2.862,1.027 -3.74,3.858 -2.118,6.647 0.21,0.327 0.483,0.594 0.801,0.817 1.25,0.859 2.592,1.132 4.052,0.611 C -0.506,7.177 -0.216,6.958 -0.006,6.646 2.264,4.255 2.264,2.277 0,0" /></g><g
           transform="translate(106.9085,86.4526)"
           id="g356"><path
             id="path358"
             style="fill:#e7e8e9;fill-opacity:1;fill-rule:nonzero;stroke:none"
             d="m 0,0 c -0.111,-0.372 -0.223,-0.744 -0.337,-1.113 -1.507,-2.01 -3.158,-2.627 -5.025,-1.883 -2.305,0.916 -3.053,3.413 -1.79,5.988 -0.016,0.325 0.207,0.519 0.407,0.722 0.134,0.115 0.28,0.201 0.461,0.213 0.369,0.191 0.741,0.382 1.11,0.573 1.291,0.75 2.668,0.575 3.921,-0.493 C 0.184,2.779 0.582,1.501 0,0" /></g><g
           transform="translate(100.3798,90.1399)"
           id="g360"><path
             id="path362"
             style="fill:#e7e8e9;fill-opacity:1;fill-rule:nonzero;stroke:none"
             d="m 0,0 c -0.207,-0.232 -0.413,-0.464 -0.623,-0.696 -1.985,1.752 -3.731,3.739 -5.559,5.644 -2.283,2.379 -4.56,4.767 -6.841,7.152 0.287,0.277 0.576,0.557 0.862,0.837 0.738,0.101 1.075,-0.484 1.463,-0.91 C -7.661,8.685 -4.579,5.387 -1.39,2.188 -0.766,1.561 -0.121,0.948 0,0" /></g><g
           transform="translate(76.4219,124.2748)"
           id="g364"><path
             id="path366"
             style="fill:#e7e8e9;fill-opacity:1;fill-rule:nonzero;stroke:none"
             d="m 0,0 c 0.382,0.035 0.763,0.07 1.145,0.108 0.521,-0.168 0.636,-0.655 0.814,-1.075 1.768,-4.172 3.463,-8.376 5.244,-12.542 0.181,-0.426 0.391,-0.862 0.172,-1.345 -0.369,-0.188 -0.735,-0.379 -1.104,-0.57 -1.965,4.745 -3.93,9.487 -5.889,14.231 C 0.223,-0.808 0.127,-0.398 0,0" /></g><g
           transform="translate(86.5632,139.6042)"
           id="g368"><path
             id="path370"
             style="fill:#e7e8e9;fill-opacity:1;fill-rule:nonzero;stroke:none"
             d="M 0,0 C 0.219,-0.219 0.442,-0.436 0.661,-0.655 0.846,-1.196 0.512,-1.546 0.188,-1.879 -1.822,-3.956 -3.937,-5.925 -5.797,-8.144 -6.109,-8.513 -6.443,-8.981 -7.069,-8.841 -7.337,-8.599 -7.607,-8.357 -7.877,-8.116 -5.298,-5.365 -2.798,-2.538 0,0" /></g><g
           transform="translate(96.9504,116.4896)"
           id="g372"><path
             id="path374"
             style="fill:#e7e8e9;fill-opacity:1;fill-rule:nonzero;stroke:none"
             d="M 0,0 -0.957,0.385 C -0.989,0.518 -1.078,0.684 -1.027,0.789 0.022,3.11 1.364,5.247 3.123,7.104 3.177,7.162 3.298,7.139 3.39,7.127 3.676,6.847 3.962,6.564 4.249,6.284 2.601,4.344 1.472,2.058 0,0" /></g><g
           transform="translate(168.7924,173.5346)"
           id="g376"><path
             id="path378"
             style="fill:#e7e8e9;fill-opacity:1;fill-rule:nonzero;stroke:none"
             d="m 0,0 c -3.269,2.175 -6.538,4.344 -9.807,6.516 -1.622,1.078 -1.622,1.078 0.035,2.232 1.113,0.776 2.181,1.625 3.351,2.3 0.907,0.524 0.9,1.03 0.525,1.905 -2.487,5.784 -4.91,11.594 -7.375,17.392 -0.314,0.744 -0.489,1.571 -1.094,2.242 -0.976,-1.75 -1.914,-3.432 -2.947,-5.279 -2.576,4.153 -5.022,8.096 -7.566,12.192 -2.741,-3.994 -5.374,-7.829 -8.077,-11.766 -1.123,1.946 -2.191,3.794 -3.355,5.81 -2.424,-7.321 -4.771,-14.441 -7.156,-21.552 -0.225,-0.668 0.07,-0.897 0.541,-1.196 1.409,-0.896 2.792,-1.828 4.268,-2.801 -4.465,-2.999 -8.844,-5.941 -13.331,-8.955 4.156,-2.84 8.217,-5.575 12.227,-8.38 0.792,-0.553 1.317,-0.506 2.102,-0.006 2.522,1.599 5.107,3.097 7.667,4.636 0.382,-0.086 0.029,-0.264 0.051,-0.397 -1.176,-1.266 -2.321,-2.563 -3.542,-3.785 -0.579,-0.578 -0.671,-1.014 -0.261,-1.777 1.94,-3.619 3.787,-7.286 5.705,-10.918 0.455,-0.855 0.636,-1.707 0.636,-2.671 -0.019,-14.972 -0.013,-29.947 -0.013,-44.922 0,-3.298 0,-3.24 3.352,-3.32 1.164,-0.029 1.463,0.267 1.46,1.444 -0.045,15.395 -0.022,30.793 -0.048,46.188 0,1.02 0.229,1.901 0.709,2.792 1.966,3.654 3.855,7.355 5.852,10.993 0.451,0.824 0.349,1.266 -0.293,1.88 -1.485,1.421 -2.891,2.922 -4.328,4.392 -0.073,0.184 -0.153,0.365 -0.258,0.546 0.213,-0.069 0.417,-0.127 0.617,-0.19 2.513,-1.622 5.044,-3.209 7.518,-4.885 0.77,-0.518 1.288,-0.569 2.086,-0.003 3.276,2.328 6.618,4.566 9.935,6.834 0.709,0.486 1.421,0.973 2.236,1.53 C 0.843,-0.579 0.426,-0.283 0,0 m -14.39,30.596 c 2.582,-6.135 5.04,-11.989 7.521,-17.831 0.204,-0.483 0.149,-0.744 -0.277,-1.04 -5.638,-3.915 -11.267,-7.842 -17.01,-11.846 -0.07,0.697 0.27,1.094 0.467,1.514 1.772,3.81 3.543,7.623 5.378,11.404 0.397,0.817 0.547,1.463 -0.204,2.099 -2.63,2.229 -2.56,4.49 -0.585,7.266 1.797,2.528 3.066,5.435 4.71,8.434 M -24.989,0.865 c -0.662,0.385 -1.002,0.865 -1.237,1.444 -1.438,3.549 -2.859,7.104 -4.338,10.631 -0.28,0.664 -0.191,1.107 0.232,1.638 1.628,2.051 3.241,4.118 4.815,6.21 0.461,0.611 0.728,0.694 1.224,0.032 1.603,-2.131 3.253,-4.223 4.898,-6.322 0.349,-0.442 0.451,-0.817 0.181,-1.386 -1.937,-4.042 -3.829,-8.103 -5.775,-12.247 m -7.155,26.357 c 2.385,3.45 4.741,6.916 7.228,10.551 1.981,-3.202 3.752,-6.322 5.794,-9.257 1.116,-1.609 1.256,-2.878 0.105,-4.465 -0.843,-1.164 -1.507,-2.477 -2.105,-3.794 -0.554,-1.221 -0.945,-0.912 -1.527,-0.057 -0.496,0.735 -1.135,1.374 -1.618,2.115 -0.509,0.776 -0.824,0.598 -1.288,-0.038 -0.792,-1.088 -1.657,-2.122 -2.551,-3.254 -1.389,2.443 -2.703,4.755 -4.029,7.06 -0.229,0.398 -0.302,0.713 -0.009,1.139 m -9.557,-16.085 c -0.442,0.289 -0.858,0.534 -0.636,1.202 2.077,6.236 4.138,12.479 6.265,18.902 2.398,-4.283 4.681,-8.395 7.009,-12.485 0.302,-0.531 0.14,-0.852 -0.168,-1.24 -0.726,-0.919 -1.393,-1.886 -2.169,-2.754 -0.525,-0.585 -0.503,-1.088 -0.22,-1.762 1.32,-3.139 2.602,-6.293 3.87,-9.454 0.144,-0.353 0.576,-0.763 0.169,-1.151 -0.48,-0.455 -0.875,0.057 -1.224,0.286 -4.306,2.808 -8.596,5.638 -12.896,8.456 m 3.61,-19.622 c -0.484,-0.298 -0.827,-0.238 -1.263,0.061 -3.581,2.455 -7.174,4.894 -10.927,7.448 3.976,2.671 7.814,5.247 11.646,7.832 0.378,0.255 0.703,0.363 1.135,0.073 3.861,-2.62 7.731,-5.221 11.697,-7.893 -4.176,-2.55 -8.24,-5.021 -12.288,-7.521 m 14.584,-61.649 c 0.003,-1.167 -0.391,-1.364 -1.435,-1.383 -1.116,-0.019 -1.523,0.225 -1.513,1.45 0.057,7.53 0.028,15.061 0.028,22.594 0,7.579 0.032,15.157 -0.028,22.735 -0.01,1.231 0.407,1.453 1.517,1.434 1.03,-0.019 1.437,-0.181 1.434,-1.361 -0.045,-15.156 -0.045,-30.313 -0.003,-45.469 m 6.264,60.422 c 0.411,-0.404 0.423,-0.709 0.166,-1.193 -1.918,-3.577 -3.848,-7.152 -5.686,-10.767 -0.544,-1.075 -1.403,-0.643 -2.14,-0.732 -1.352,-0.378 -1.915,0.366 -2.449,1.45 -1.698,3.428 -3.473,6.815 -5.273,10.193 -0.34,0.636 -0.34,1.033 0.172,1.561 2.147,2.213 4.261,4.458 6.37,6.713 0.563,0.598 1.011,0.662 1.625,0.035 2.382,-2.442 4.789,-4.859 7.215,-7.26 m 5.944,1.212 c -0.369,-0.255 -0.642,-0.248 -1.008,-0.007 -3.787,2.481 -7.581,4.948 -11.477,7.486 3.737,2.605 7.368,5.139 11,7.677 0.273,0.191 0.509,0.369 0.875,0.127 3.832,-2.566 7.676,-5.12 11.648,-7.762 C -4.045,-3.555 -7.677,-6.02 -11.299,-8.5" /></g><g
           transform="translate(190.0116,119.5864)"
           id="g380"><path
             id="path382"
             style="fill:#e7e8e9;fill-opacity:1;fill-rule:nonzero;stroke:none"
             d="m 0,0 c -0.795,-2.63 -1.593,-5.26 -2.388,-7.89 -1.365,-0.658 -2.735,-1.307 -4.09,-1.987 -0.42,-0.21 -0.528,-0.019 -0.69,0.318 -0.789,1.663 -1.606,3.31 -2.414,4.961 0.951,0.578 0.897,1.65 1.221,2.528 0.369,0.989 0.656,2.003 0.98,3.008 0.69,-0.474 0.82,-1.291 1.215,-1.946 0.435,-0.722 1.071,-1.282 1.781,-0.363 C -3.218,0.149 -1.596,-0.016 0,0" /></g><g
           transform="translate(196.2106,139.0053)"
           id="g384"><path
             id="path386"
             style="fill:#e7e8e9;fill-opacity:1;fill-rule:nonzero;stroke:none"
             d="m 0,0 c -0.582,-1.87 -1.167,-3.74 -1.749,-5.61 -1.158,-0.432 -2.137,-0.448 -2.668,0.954 -0.143,0.379 -0.41,0.964 -0.999,0.442 -0.369,-0.327 -1.335,-0.356 -0.731,-1.259 0.381,-0.572 0.095,-0.709 -0.452,-0.738 -1.106,-0.06 -2.21,-0.152 -3.317,-0.232 -0.321,0.442 -0.168,0.919 -0.006,1.329 0.579,1.492 0.652,3.177 1.701,4.491 2.109,0.715 4.214,1.44 6.329,2.14 C -0.506,1.978 -0.537,0.623 0,0" /></g><g
           transform="translate(220.1262,133.3521)"
           id="g388"><path
             id="path390"
             style="fill:#e7e8e9;fill-opacity:1;fill-rule:nonzero;stroke:none"
             d="m 0,0 c -6.964,3.295 -12.66,8.198 -17.592,14.043 -1.345,1.59 -1.311,1.594 0.423,2.792 0.426,0.293 1.256,0.474 1.068,1.094 -0.162,0.538 -0.601,1.187 -1.402,1.174 -0.14,0.016 -0.306,0.038 -0.411,-0.041 -1.154,-0.891 -2.232,-1.489 -3.294,0.187 -0.324,0.512 -0.941,0.159 -1.377,-0.133 -0.401,-0.268 -0.846,-0.633 -0.534,-1.133 0.852,-1.367 -0.182,-1.52 -1.072,-1.809 -0.576,-0.188 -1.17,-0.308 -1.743,-0.499 -1.046,-0.353 -2.239,-0.245 -3.154,-1.005 -3.378,-0.732 -6.803,-1.05 -10.25,-1.285 -1.059,-0.07 -1.444,0.051 -1.11,1.094 0.245,0.76 -0.025,0.932 -0.753,1.056 -0.821,0.143 -1.053,-0.057 -1.094,-0.868 -0.032,-0.531 0.092,-1.307 -0.754,-1.438 -0.433,-0.067 -0.878,-0.038 -0.843,-0.658 0.029,-0.487 -0.171,-1.11 0.544,-1.266 0.617,-0.133 0.544,-0.528 0.468,-0.954 -1.066,-5.978 -2.497,-11.849 -4.904,-17.452 -0.366,-0.859 -0.697,-1.25 -1.581,-0.553 -0.318,0.251 -0.807,0.919 -1.224,0.104 -0.305,-0.588 -0.76,-1.284 0.27,-1.726 0.77,-0.328 1.31,-0.754 0.547,-1.635 -0.292,-0.334 -0.181,-0.595 0.191,-0.909 0.878,-0.741 1.387,-0.382 1.819,0.61 2.7,-2.646 4.888,-5.511 6.561,-8.767 -0.019,-0.14 -0.045,-0.287 0.003,-0.414 0.68,-1.86 1.752,-3.539 2.216,-5.527 0.356,-1.523 2.08,-1.657 3.006,-0.35 0.524,0.741 1.256,1.066 1.993,1.438 0.449,0.226 0.996,0.267 1.304,0.741 1.797,1.017 3.781,1.571 5.689,2.321 2.576,1.011 5.178,1.962 7.817,2.955 0.026,-0.274 0.038,-0.363 0.045,-0.449 0.028,-0.617 -0.484,-1.421 0.753,-1.533 1.212,-0.111 1.171,0.62 1.129,1.393 -0.051,0.976 0.312,1.603 1.307,1.845 0.337,0.082 0.789,0.225 0.662,0.737 -0.115,0.471 -0.127,1.209 -0.751,1.168 -0.858,-0.058 -0.671,0.445 -0.636,0.868 0.051,0.601 0.166,1.199 0.264,1.796 0.484,2.942 0.849,5.903 1.622,8.79 0.108,0.404 0.08,1.183 0.779,0.7 0.942,-0.652 0.989,0.248 1.31,0.62 0.496,0.569 -0.07,0.887 -0.435,1.072 -0.811,0.41 -0.764,0.97 -0.395,1.606 0.462,0.798 -0.286,0.922 -0.661,1.265 -0.503,0.461 -0.757,0.073 -0.951,-0.305 -0.362,-0.706 -0.68,-0.34 -1.062,-0.022 -2.392,1.968 -4.535,4.178 -6.487,6.576 -0.306,0.375 -0.554,0.77 -0.245,1.266 -0.124,1.094 -1.056,1.609 -1.702,2.315 -0.655,0.722 -2.149,0.35 -2.165,-0.601 -0.019,-1.218 -0.792,-1.323 -1.571,-1.59 -1.018,-0.35 -2.042,-0.687 -3.066,-1.021 -0.528,-0.184 -0.951,-0.299 -1.53,0.143 -1.135,0.862 -1.663,0.671 -2.226,-0.598 -0.241,-0.543 -0.547,-0.973 -1.119,-1.173 -1.072,-0.369 -1.205,-1.11 -0.696,-1.991 0.343,-0.595 0.308,-1.129 0.076,-1.733 -0.805,-2.099 -1.577,-4.207 -2.299,-6.335 -0.156,-0.451 -0.357,-0.839 -0.814,-1.087 -0.745,-0.398 -1.934,-0.694 -1.171,-1.877 0.512,-0.795 0.003,-1.949 0.821,-2.436 1.447,-0.865 1.911,-2.375 2.747,-3.641 0.468,-0.642 0.792,-1.37 1.206,-2.045 0.518,-0.852 1.3,-1.125 1.946,-0.4 1.211,1.358 2.795,1.265 4.337,1.444 0.694,0.184 1.228,0.33 1.664,-0.611 0.473,-1.027 1.488,-0.897 2.219,0.041 0.856,1.104 1.12,2.458 1.692,3.68 1.034,2.2 1.969,4.445 2.999,6.646 0.331,0.706 0.324,1.352 -0.525,1.755 -0.817,0.392 -1.313,0.067 -1.739,-0.623 -0.201,-0.324 -0.204,-0.843 -0.789,-0.913 -0.509,0.722 -1.336,1.282 -0.13,2.258 0.703,0.566 0.178,1.609 -0.903,2.125 -1.031,-0.21 -1.826,-0.051 -2.484,0.954 -0.569,0.868 -2.099,0.556 -2.293,-0.481 -0.168,-0.887 -0.56,-1.011 -1.285,-1.024 -0.693,-0.012 -1.364,-0.273 -2.07,-0.238 -0.432,0.076 -0.903,-0.283 -1.367,0.124 0.318,1.059 0.814,2.067 1.081,3.145 0.277,1.126 0.941,1.778 2.07,1.985 1.695,0.632 3.492,0.979 5.161,1.666 1.314,0.537 2.115,0.219 2.713,-0.967 2.051,-2.366 4.226,-4.614 6.637,-6.618 0.601,-0.499 0.894,-1.011 0.687,-1.812 -1.04,-4.036 -1.568,-8.164 -2.15,-12.282 -0.114,-0.798 -0.458,-1.269 -1.192,-1.545 -4.116,-1.54 -8.208,-3.126 -12.336,-4.634 -1.593,-0.556 -3.145,-1.196 -4.541,-2.092 -0.372,2.016 -1.749,3.603 -2.554,5.454 -1.809,2.731 -3.546,5.517 -6.004,7.749 -0.601,0.547 -0.661,1.142 -0.334,1.893 2.579,5.864 4.207,12.005 5.196,18.32 0.131,0.83 0.506,1.247 1.377,1.247 3.238,0.003 6.418,0.601 9.617,1.011 1.339,0.207 2.678,0.448 3.972,0.821 1.552,0.445 3.221,0.61 4.573,1.631 0.611,0.649 0.795,-0.102 1.04,-0.369 0.63,-0.684 1.173,-1.45 1.787,-2.15 C -13.36,6.389 -7.686,1.523 -0.757,-1.733 -0.356,-1.921 0.134,-2.592 0.547,-1.593 0.875,-0.801 0.875,-0.413 0,0 m -27.126,-4.681 c 1.831,-2 1.812,-4.579 -0.096,-6.545 -0.591,-0.61 -1.393,-0.264 -2.108,-0.273 0.735,2.274 1.469,4.544 2.204,6.818 m -7.47,1.689 c -0.697,-2.351 -1.393,-4.701 -2.093,-7.051 -0.617,0.751 -1.514,1.584 -1.358,2.481 0.255,1.488 0.862,2.951 1.549,4.309 0.302,0.591 1.202,0.585 1.902,0.261" /></g><g
           transform="translate(108.9088,147.4402)"
           id="g392"><path
             id="path394"
             style="fill:#e7e8e9;fill-opacity:1;fill-rule:nonzero;stroke:none"
             d="m 0,0 c -1.307,3.4 -2.557,6.821 -3.921,10.195 -0.572,1.419 -0.887,2.955 -1.813,4.22 -0.276,0.172 -0.556,0.153 -0.836,0.01 -0.07,-0.076 -0.124,-0.153 -0.165,-0.229 h 0.101 c 1.498,-3.975 2.993,-7.947 4.494,-11.922 0.346,-0.916 0.712,-1.829 1.056,-2.748 0.133,-0.356 0.238,-0.792 -0.054,-1.059 -0.277,-0.248 -0.611,0.073 -0.891,0.207 -3.806,1.787 -7.607,3.593 -11.42,5.371 -0.524,0.245 -0.909,0.398 -0.54,1.104 1.647,3.145 3.253,6.309 4.875,9.467 0.032,-0.013 0.06,-0.023 0.092,-0.035 0.003,0.006 0.003,0.012 0.006,0.016 -0.089,0.594 -0.483,0.849 -1.036,0.925 -0.023,-0.006 -0.038,-0.019 -0.058,-0.025 0.02,-0.026 0.032,-0.051 0.051,-0.08 -1.567,-3.078 -3.17,-6.137 -4.687,-9.241 -0.458,-0.938 -0.821,-1.209 -1.864,-0.687 -3.215,1.609 -6.484,3.107 -9.756,4.601 -0.789,0.363 -1.167,0.808 -1.04,1.705 0.108,0.747 0.095,1.574 -0.394,2.159 -0.907,1.082 -0.665,2.061 -0.118,3.193 2.067,4.293 4.086,8.605 6.087,12.93 0.248,0.531 0.483,0.687 1.052,0.554 0.442,-0.105 0.989,-0.188 1.384,-0.023 1.44,0.598 2.048,-0.295 2.795,-1.265 2.162,-2.808 4.407,-5.553 6.621,-8.323 -0.032,-0.044 -0.054,-0.082 -0.083,-0.127 0.01,0 0.019,-0.006 0.029,-0.006 0.489,0.032 0.811,0.264 0.919,0.76 -2.347,3.021 -4.665,6.068 -7.063,9.054 -0.557,0.693 -0.515,1.075 0.003,1.768 1.514,2.013 1.027,4.904 -0.957,6.357 -1.905,1.396 -4.51,1.161 -6.093,-0.553 -1.527,-1.657 -1.574,-4.379 -0.086,-6.179 0.343,-0.414 0.836,-0.649 0.48,-1.396 -2.178,-4.548 -4.306,-9.124 -6.433,-13.697 -0.287,-0.617 -0.595,-0.773 -1.304,-0.579 -1.132,0.309 -2.325,0.363 -3.412,-0.238 -1.759,-0.977 -2.618,-2.455 -2.452,-4.503 0.149,-1.861 1.049,-3.2 2.779,-3.852 1.803,-0.677 3.53,-0.454 4.891,1.015 0.553,0.598 0.967,0.626 1.67,0.283 3.447,-1.666 6.913,-3.301 10.399,-4.885 0.683,-0.308 0.687,-0.575 0.384,-1.141 -0.795,-1.482 -1.548,-2.987 -2.318,-4.481 0.315,-0.579 0.789,-0.671 1.364,-0.449 -0.031,0.032 -0.063,0.061 -0.095,0.089 0.706,1.47 1.437,2.926 2.108,4.411 0.296,0.655 0.64,0.605 1.196,0.344 3.873,-1.835 7.753,-3.661 11.652,-5.445 0.811,-0.375 0.929,-0.82 0.712,-1.647 -1.062,-4.051 -2.06,-8.116 -3.075,-12.18 -0.089,-0.356 -0.127,-0.728 -0.191,-1.094 H -5.06 c 0.045,-0.073 0.099,-0.149 0.166,-0.222 0.289,-0.143 0.575,-0.162 0.852,0.028 0.086,0.163 0.207,0.318 0.251,0.49 1.326,5.196 2.637,10.396 3.988,15.586 C 0.343,-0.906 0.184,-0.48 0,0" /></g><g
           transform="translate(100.2535,128.5365)"
           id="g396"><path
             id="path398"
             style="fill:#e7e8e9;fill-opacity:1;fill-rule:nonzero;stroke:none"
             d="m 0,0 c -2.678,2.729 -4.942,5.813 -7.454,8.682 -0.401,0.454 -0.773,0.931 -1.158,1.399 0.293,0.223 0.585,0.448 0.875,0.671 C -4.92,7.438 -2.102,4.121 0.716,0.808 0.477,0.537 0.239,0.27 0,0" /></g><g
           transform="translate(79.7533,126.1002)"
           id="g400"><path
             id="path402"
             style="fill:#e7e8e9;fill-opacity:1;fill-rule:nonzero;stroke:none"
             d="m 0,0 c 3.972,-3.117 7.944,-6.233 11.913,-9.353 0.181,-0.143 0.343,-0.311 0.512,-0.464 -0.21,-0.238 -0.42,-0.477 -0.63,-0.716 C 10.1,-9.801 8.847,-8.456 7.419,-7.362 4.652,-5.244 1.937,-3.059 -0.798,-0.9 -0.531,-0.601 -0.267,-0.299 0,0" /></g><g
           transform="translate(185.5302,130.3586)"
           id="g404"><path
             id="path406"
             style="fill:#e7e8e9;fill-opacity:1;fill-rule:nonzero;stroke:none"
             d="M 0,0 C 1.838,0.553 3.768,0.385 5.641,0.709 6.386,0.836 6.446,0.06 6.745,-0.356 7.038,-0.763 7.232,-1.24 7.47,-1.689 7.104,-4.08 6.576,-6.421 5.266,-8.507 3.498,-8.888 1.663,-8.92 -0.06,-9.512 c -0.49,-0.168 -0.678,0.054 -0.875,0.404 -0.382,0.687 -0.77,1.374 -1.158,2.061 -0.184,0.502 -0.155,1.011 0.048,1.491 C -1.269,-3.737 -1.231,-1.65 0,0" /></g></g></g></g></svg>