<?xml version="1.0" encoding="UTF-8"?>
<!DOCTYPE svg PUBLIC "-//W3C//DTD SVG 1.1//EN" "http://www.w3.org/Graphics/SVG/1.1/DTD/svg11.dtd">
<svg xmlns="http://www.w3.org/2000/svg" xmlns:xlink="http://www.w3.org/1999/xlink" version="1.1" width="561px" height="561px" viewBox="-0.5 -0.5 561 561"><defs/><g><ellipse cx="40" cy="120" rx="40" ry="40" fill="#ffffff" stroke="#000000" pointer-events="all"/><ellipse cx="40" cy="280" rx="40" ry="40" fill="#ffffff" stroke="#000000" pointer-events="all"/><ellipse cx="40" cy="440" rx="40" ry="40" fill="#ffffff" stroke="#000000" pointer-events="all"/><ellipse cx="280" cy="40" rx="40" ry="40" fill="#ffffff" stroke="#000000" pointer-events="all"/><ellipse cx="280" cy="520" rx="40" ry="40" fill="#ffffff" stroke="#000000" pointer-events="all"/><ellipse cx="280" cy="360" rx="40" ry="40" fill="#ffffff" stroke="#000000" pointer-events="all"/><ellipse cx="280" cy="200" rx="40" ry="40" fill="#ffffff" stroke="#000000" pointer-events="all"/><ellipse cx="520" cy="440" rx="40" ry="40" fill="#ffffff" stroke="#000000" pointer-events="all"/><ellipse cx="520" cy="280" rx="40" ry="40" fill="#ffffff" stroke="#000000" pointer-events="all"/><ellipse cx="520" cy="120" rx="40" ry="40" fill="#ffffff" stroke="#000000" pointer-events="all"/><path d="M 308.28 331.72 L 487.21 152.79" fill="none" stroke="#000000" stroke-miterlimit="10" pointer-events="stroke"/><path d="M 490.93 149.07 L 488.45 156.5 L 487.21 152.79 L 483.5 151.55 Z" fill="#000000" stroke="#000000" stroke-miterlimit="10" pointer-events="all"/><path d="M 60.58 405.7 L 256.14 79.76" fill="none" stroke="#000000" stroke-miterlimit="10" pointer-events="stroke"/><path d="M 258.84 75.26 L 258.24 83.06 L 256.14 79.76 L 252.24 79.46 Z" fill="#000000" stroke="#000000" stroke-miterlimit="10" pointer-events="all"/><path d="M 68.28 411.72 L 247.21 232.79" fill="none" stroke="#000000" stroke-miterlimit="10" pointer-events="stroke"/><path d="M 250.93 229.07 L 248.45 236.5 L 247.21 232.79 L 243.5 231.55 Z" fill="#000000" stroke="#000000" stroke-miterlimit="10" pointer-events="all"/><path d="M 77.97 427.41 L 236.01 374.66" fill="none" stroke="#000000" stroke-miterlimit="10" pointer-events="stroke"/><path d="M 240.99 373 L 235.46 378.54 L 236.01 374.66 L 233.24 371.9 Z" fill="#000000" stroke="#000000" stroke-miterlimit="10" pointer-events="all"/><path d="M 77.97 452.59 L 236.01 505.34" fill="none" stroke="#000000" stroke-miterlimit="10" pointer-events="stroke"/><path d="M 240.99 507 L 233.24 508.1 L 236.01 505.34 L 235.46 501.46 Z" fill="#000000" stroke="#000000" stroke-miterlimit="10" pointer-events="all"/><path d="M 68.28 308.28 L 247.21 487.21" fill="none" stroke="#000000" stroke-miterlimit="10" pointer-events="stroke"/><path d="M 250.93 490.93 L 243.5 488.45 L 247.21 487.21 L 248.45 483.5 Z" fill="#000000" stroke="#000000" stroke-miterlimit="10" pointer-events="all"/><path d="M 77.97 292.59 L 236.01 345.34" fill="none" stroke="#000000" stroke-miterlimit="10" pointer-events="stroke"/><path d="M 240.99 347 L 233.24 348.1 L 236.01 345.34 L 235.46 341.46 Z" fill="#000000" stroke="#000000" stroke-miterlimit="10" pointer-events="all"/><path d="M 77.97 267.41 L 236.01 214.66" fill="none" stroke="#000000" stroke-miterlimit="10" pointer-events="stroke"/><path d="M 240.99 213 L 235.46 218.54 L 236.01 214.66 L 233.24 211.9 Z" fill="#000000" stroke="#000000" stroke-miterlimit="10" pointer-events="all"/><path d="M 68.28 251.72 L 247.21 72.79" fill="none" stroke="#000000" stroke-miterlimit="10" pointer-events="stroke"/><path d="M 250.93 69.07 L 248.45 76.5 L 247.21 72.79 L 243.5 71.55 Z" fill="#000000" stroke="#000000" stroke-miterlimit="10" pointer-events="all"/><path d="M 60.58 154.3 L 256.14 480.24" fill="none" stroke="#000000" stroke-miterlimit="10" pointer-events="stroke"/><path d="M 258.84 484.74 L 252.24 480.54 L 256.14 480.24 L 258.24 476.94 Z" fill="#000000" stroke="#000000" stroke-miterlimit="10" pointer-events="all"/><path d="M 68.28 148.28 L 247.21 327.21" fill="none" stroke="#000000" stroke-miterlimit="10" pointer-events="stroke"/><path d="M 250.93 330.93 L 243.5 328.45 L 247.21 327.21 L 248.45 323.5 Z" fill="#000000" stroke="#000000" stroke-miterlimit="10" pointer-events="all"/><path d="M 77.97 132.59 L 236.01 185.34" fill="none" stroke="#000000" stroke-miterlimit="10" pointer-events="stroke"/><path d="M 240.99 187 L 233.24 188.1 L 236.01 185.34 L 235.46 181.46 Z" fill="#000000" stroke="#000000" stroke-miterlimit="10" pointer-events="all"/><path d="M 77.97 107.41 L 236.01 54.66" fill="none" stroke="#000000" stroke-miterlimit="10" pointer-events="stroke"/><path d="M 240.99 53 L 235.46 58.54 L 236.01 54.66 L 233.24 51.9 Z" fill="#000000" stroke="#000000" stroke-miterlimit="10" pointer-events="all"/><path d="M 308.28 228.28 L 487.21 407.21" fill="none" stroke="#000000" stroke-miterlimit="10" pointer-events="stroke"/><path d="M 490.93 410.93 L 483.5 408.45 L 487.21 407.21 L 488.45 403.5 Z" fill="#000000" stroke="#000000" stroke-miterlimit="10" pointer-events="all"/><path d="M 317.97 212.59 L 476.01 265.34" fill="none" stroke="#000000" stroke-miterlimit="10" pointer-events="stroke"/><path d="M 480.99 267 L 473.24 268.1 L 476.01 265.34 L 475.46 261.46 Z" fill="#000000" stroke="#000000" stroke-miterlimit="10" pointer-events="all"/><path d="M 317.97 347.41 L 476.01 294.66" fill="none" stroke="#000000" stroke-miterlimit="10" pointer-events="stroke"/><path d="M 480.99 293 L 475.46 298.54 L 476.01 294.66 L 473.24 291.9 Z" fill="#000000" stroke="#000000" stroke-miterlimit="10" pointer-events="all"/><path d="M 317.97 187.41 L 476.01 134.66" fill="none" stroke="#000000" stroke-miterlimit="10" pointer-events="stroke"/><path d="M 480.99 133 L 475.46 138.54 L 476.01 134.66 L 473.24 131.9 Z" fill="#000000" stroke="#000000" stroke-miterlimit="10" pointer-events="all"/><path d="M 317.97 372.59 L 476.01 425.34" fill="none" stroke="#000000" stroke-miterlimit="10" pointer-events="stroke"/><path d="M 480.99 427 L 473.24 428.1 L 476.01 425.34 L 475.46 421.46 Z" fill="#000000" stroke="#000000" stroke-miterlimit="10" pointer-events="all"/><path d="M 300.58 485.7 L 496.14 159.76" fill="none" stroke="#000000" stroke-miterlimit="10" pointer-events="stroke"/><path d="M 498.84 155.26 L 498.24 163.06 L 496.14 159.76 L 492.24 159.46 Z" fill="#000000" stroke="#000000" stroke-miterlimit="10" pointer-events="all"/><path d="M 300.58 74.3 L 496.14 400.24" fill="none" stroke="#000000" stroke-miterlimit="10" pointer-events="stroke"/><path d="M 498.84 404.74 L 492.24 400.54 L 496.14 400.24 L 498.24 396.94 Z" fill="#000000" stroke="#000000" stroke-miterlimit="10" pointer-events="all"/><path d="M 308.28 491.72 L 487.21 312.79" fill="none" stroke="#000000" stroke-miterlimit="10" pointer-events="stroke"/><path d="M 490.93 309.07 L 488.45 316.5 L 487.21 312.79 L 483.5 311.55 Z" fill="#000000" stroke="#000000" stroke-miterlimit="10" pointer-events="all"/><path d="M 308.28 68.28 L 487.21 247.21" fill="none" stroke="#000000" stroke-miterlimit="10" pointer-events="stroke"/><path d="M 490.93 250.93 L 483.5 248.45 L 487.21 247.21 L 488.45 243.5 Z" fill="#000000" stroke="#000000" stroke-miterlimit="10" pointer-events="all"/><path d="M 317.97 52.59 L 476.01 105.34" fill="none" stroke="#000000" stroke-miterlimit="10" pointer-events="stroke"/><path d="M 480.99 107 L 473.24 108.1 L 476.01 105.34 L 475.46 101.46 Z" fill="#000000" stroke="#000000" stroke-miterlimit="10" pointer-events="all"/><path d="M 317.97 507.41 L 476.01 454.66" fill="none" stroke="#000000" stroke-miterlimit="10" pointer-events="stroke"/><path d="M 480.99 453 L 475.46 458.54 L 476.01 454.66 L 473.24 451.9 Z" fill="#000000" stroke="#000000" stroke-miterlimit="10" pointer-events="all"/></g></svg>